<mxfile host="app.diagrams.net" modified="2020-07-24T12:45:01.020Z" agent="5.0 (X11)" etag="vLbKAu5pbsO6Z7EG7Rus" version="13.5.2" type="github">
  <diagram id="glxlAXFnUvr_IqEY8CBl" name="Page-1">
    <mxGraphModel dx="902" dy="751" grid="1" gridSize="10" guides="1" tooltips="1" connect="1" arrows="1" fold="1" page="1" pageScale="1" pageWidth="850" pageHeight="1100" math="0" shadow="0">
      <root>
        <mxCell id="0" />
        <mxCell id="1" parent="0" />
        <mxCell id="-XNHo_berZdc047SYOUG-1" value="" style="shape=image;verticalLabelPosition=bottom;labelBackgroundColor=#ffffff;verticalAlign=top;aspect=fixed;imageAspect=0;image=data:image/svg+xml,PHN2ZyB2ZXJzaW9uPSIxLjIiIHdpZHRoPSI0MjBtbSIgaGVpZ2h0PSIyOTdtbSIgdmlld0JveD0iMCAwIDQyMDAwIDI5NzAwIiBwcmVzZXJ2ZUFzcGVjdFJhdGlvPSJ4TWlkWU1pZCIgZmlsbC1ydWxlPSJldmVub2RkIiBzdHJva2Utd2lkdGg9IjI4LjIyMiIgc3Ryb2tlLWxpbmVqb2luPSJyb3VuZCIgeG1sbnM9Imh0dHA6Ly93d3cudzMub3JnLzIwMDAvc3ZnIiB4bWxuczpvb289Imh0dHA6Ly94bWwub3Blbm9mZmljZS5vcmcvc3ZnL2V4cG9ydCIgeG1sbnM6eGxpbms9Imh0dHA6Ly93d3cudzMub3JnLzE5OTkveGxpbmsiIHhtbG5zOnByZXNlbnRhdGlvbj0iaHR0cDovL3N1bi5jb20veG1sbnMvc3Rhcm9mZmljZS9wcmVzZW50YXRpb24iIHhtbG5zOnNtaWw9Imh0dHA6Ly93d3cudzMub3JnLzIwMDEvU01JTDIwLyIgeG1sbnM6YW5pbT0idXJuOm9hc2lzOm5hbWVzOnRjOm9wZW5kb2N1bWVudDp4bWxuczphbmltYXRpb246MS4wIiB4bWw6c3BhY2U9InByZXNlcnZlIj4mI3hhOyA8ZGVmcyBjbGFzcz0iQ2xpcFBhdGhHcm91cCI+JiN4YTsgIDxjbGlwUGF0aCBpZD0icHJlc2VudGF0aW9uX2NsaXBfcGF0aCIgY2xpcFBhdGhVbml0cz0idXNlclNwYWNlT25Vc2UiPiYjeGE7ICAgPHJlY3QgeD0iMCIgeT0iMCIgd2lkdGg9IjQyMDAwIiBoZWlnaHQ9IjI5NzAwIi8+JiN4YTsgIDwvY2xpcFBhdGg+JiN4YTsgIDxjbGlwUGF0aCBpZD0icHJlc2VudGF0aW9uX2NsaXBfcGF0aF9zaHJpbmsiIGNsaXBQYXRoVW5pdHM9InVzZXJTcGFjZU9uVXNlIj4mI3hhOyAgIDxyZWN0IHg9IjQyIiB5PSIyOSIgd2lkdGg9IjQxOTE2IiBoZWlnaHQ9IjI5NjQxIi8+JiN4YTsgIDwvY2xpcFBhdGg+JiN4YTsgPC9kZWZzPiYjeGE7IDxkZWZzPiYjeGE7ICA8Zm9udCBpZD0iRW1iZWRkZWRGb250XzEiIGhvcml6LWFkdi14PSIyMDQ4Ij4mI3hhOyAgIDxmb250LWZhY2UgZm9udC1mYW1pbHk9IkxpYmVyYXRpb24gU2FucyBlbWJlZGRlZCIgdW5pdHMtcGVyLWVtPSIyMDQ4IiBmb250LXdlaWdodD0ibm9ybWFsIiBmb250LXN0eWxlPSJub3JtYWwiIGFzY2VudD0iMTg1MiIgZGVzY2VudD0iNDIzIi8+JiN4YTsgICA8bWlzc2luZy1nbHlwaCBob3Jpei1hZHYteD0iMjA0OCIgZD0iTSAwLDAgTCAyMDQ3LDAgMjA0NywyMDQ3IDAsMjA0NyAwLDAgWiIvPiYjeGE7ICAgPGdseXBoIHVuaWNvZGU9ItCkIiBob3Jpei1hZHYteD0iMTM1MCIgZD0iTSAxNDM5LDczNiBDIDE0MzksNjM0IDE0MTgsNTQ0IDEzNzYsNDY1IDEzMzMsMzg2IDEyNzIsMzI0IDExOTMsMjgxIDExMTQsMjM4IDEwMjEsMjE2IDkxNCwyMTYgTCA4NzQsMjE2IDg3NCwtMTEgNjgzLC0xMSA2ODMsMjE2IDY0MywyMTYgQyA1MzYsMjE2IDQ0MiwyMzggMzYzLDI4MiAyODQsMzI1IDIyMywzODcgMTgxLDQ2NiAxMzksNTQ1IDExOCw2MzUgMTE4LDczNiAxMTgsODk1IDE2NSwxMDE4IDI1OCwxMTA2IDM1MSwxMTkzIDQ4MywxMjM3IDY1NCwxMjM3IEwgNjgzLDEyMzcgNjgzLDE0MTkgODc0LDE0MTkgODc0LDEyMzcgOTAyLDEyMzcgQyAxMDc0LDEyMzcgMTIwNywxMTkzIDEzMDAsMTEwNSAxMzkzLDEwMTcgMTQzOSw4OTQgMTQzOSw3MzYgWiBNIDEyNDcsNzMyIEMgMTI0Nyw5NzcgMTEyNCwxMDk5IDg3OSwxMDk5IEwgODc0LDEwOTkgODc0LDM1MyA4ODcsMzUzIEMgMTAwMywzNTMgMTA5MiwzODUgMTE1NCw0NDkgMTIxNiw1MTMgMTI0Nyw2MDcgMTI0Nyw3MzIgWiBNIDMxMCw3MzIgQyAzMTAsNjA3IDM0MSw1MTMgNDAzLDQ0OSA0NjUsMzg1IDU1NCwzNTMgNjcwLDM1MyBMIDY4MywzNTMgNjgzLDEwOTkgNjc0LDEwOTkgQyA1NTMsMTA5OSA0NjIsMTA2OSA0MDEsMTAwOSAzNDAsOTQ5IDMxMCw4NTcgMzEwLDczMiBaIi8+JiN4YTsgICA8Z2x5cGggdW5pY29kZT0i0KIiIGhvcml6LWFkdi14PSIxMTkyIiBkPSJNIDcyMCwxMjUzIEwgNzIwLDAgNTMwLDAgNTMwLDEyNTMgNDYsMTI1MyA0NiwxNDA5IDEyMDQsMTQwOSAxMjA0LDEyNTMgNzIwLDEyNTMgWiIvPiYjeGE7ICAgPGdseXBoIHVuaWNvZGU9ItChIiBob3Jpei1hZHYteD0iMTMyNCIgZD0iTSA3OTIsMTI3NCBDIDYzNiwxMjc0IDUxNSwxMjI0IDQyOCwxMTI0IDM0MSwxMDIzIDI5OCw4ODYgMjk4LDcxMSAyOTgsNTM4IDM0Myw0MDAgNDM0LDI5NSA1MjQsMTkwIDY0NiwxMzcgODAwLDEzNyA5OTcsMTM3IDExNDYsMjM1IDEyNDUsNDMwIEwgMTQwMSwzNTIgQyAxMzQzLDIzMSAxMjYyLDEzOCAxMTU3LDc1IDEwNTIsMTIgOTMwLC0yMCA3OTEsLTIwIDY0OSwtMjAgNTI2LDEwIDQyMyw2OSAzMTksMTI4IDI0MCwyMTIgMTg2LDMyMiAxMzEsNDMxIDEwNCw1NjEgMTA0LDcxMSAxMDQsOTM2IDE2NSwxMTEyIDI4NiwxMjM5IDQwNywxMzY2IDU3NSwxNDMwIDc5MCwxNDMwIDk0MCwxNDMwIDEwNjUsMTQwMSAxMTY2LDEzNDIgMTI2NywxMjgzIDEzNDEsMTE5NiAxMzg4LDEwODEgTCAxMjA3LDEwMjEgQyAxMTc0LDExMDMgMTEyMiwxMTY2IDEwNTAsMTIwOSA5NzcsMTI1MiA4OTEsMTI3NCA3OTIsMTI3NCBaIi8+JiN4YTsgICA8Z2x5cGggdW5pY29kZT0i0KAiIGhvcml6LWFkdi14PSIxMTEyIiBkPSJNIDEyNTgsOTg1IEMgMTI1OCw4NTIgMTIxNSw3NDYgMTEyOCw2NjcgMTA0MSw1ODggOTIyLDU0OSA3NzMsNTQ5IEwgMzU5LDU0OSAzNTksMCAxNjgsMCAxNjgsMTQwOSA3NjEsMTQwOSBDIDkxOSwxNDA5IDEwNDEsMTM3MiAxMTI4LDEyOTggMTIxNSwxMjI0IDEyNTgsMTEyMCAxMjU4LDk4NSBaIE0gMTA2Niw5ODMgQyAxMDY2LDExNjUgOTU3LDEyNTYgNzM4LDEyNTYgTCAzNTksMTI1NiAzNTksNzAwIDc0Niw3MDAgQyA5NTksNzAwIDEwNjYsNzk0IDEwNjYsOTgzIFoiLz4mI3hhOyAgIDxnbHlwaCB1bmljb2RlPSLQnyIgaG9yaXotYWR2LXg9IjExNjUiIGQ9Ik0gMTExOSwwIEwgMTExOSwxMjQ4IDM1NywxMjQ4IDM1NywwIDE2NiwwIDE2NiwxNDA5IDEzMTAsMTQwOSAxMzEwLDAgMTExOSwwIFoiLz4mI3hhOyAgIDxnbHlwaCB1bmljb2RlPSLQniIgaG9yaXotYWR2LXg9IjE0MzAiIGQ9Ik0gMTQ5NSw3MTEgQyAxNDk1LDU2NCAxNDY3LDQzNSAxNDExLDMyNCAxMzU0LDIxMyAxMjczLDEyOCAxMTY4LDY5IDEwNjMsMTAgOTM4LC0yMCA3OTUsLTIwIDY1MCwtMjAgNTI2LDkgNDIxLDY4IDMxNiwxMjcgMjM1LDIxMiAxODAsMzIzIDEyNSw0MzQgOTcsNTYzIDk3LDcxMSA5Nyw5MzYgMTU5LDExMTMgMjgyLDEyNDAgNDA1LDEzNjcgNTc3LDE0MzAgNzk3LDE0MzAgOTQwLDE0MzAgMTA2NSwxNDAyIDExNzAsMTM0NSAxMjc1LDEyODggMTM1NiwxMjA1IDE0MTIsMTA5NiAxNDY3LDk4NyAxNDk1LDg1OSAxNDk1LDcxMSBaIE0gMTMwMCw3MTEgQyAxMzAwLDg4NiAxMjU2LDEwMjQgMTE2OSwxMTI0IDEwODEsMTIyNCA5NTcsMTI3NCA3OTcsMTI3NCA2MzYsMTI3NCA1MTEsMTIyNSA0MjMsMTEyNiAzMzUsMTAyNyAyOTEsODg5IDI5MSw3MTEgMjkxLDUzNCAzMzYsMzk0IDQyNSwyOTEgNTE0LDE4NyA2MzcsMTM1IDc5NSwxMzUgOTU4LDEzNSAxMDgzLDE4NSAxMTcwLDI4NiAxMjU3LDM4NiAxMzAwLDUyOCAxMzAwLDcxMSBaIi8+JiN4YTsgICA8Z2x5cGggdW5pY29kZT0i0J0iIGhvcml6LWFkdi14PSIxMTY1IiBkPSJNIDExMjEsMCBMIDExMjEsNjUzIDM1OSw2NTMgMzU5LDAgMTY4LDAgMTY4LDE0MDkgMzU5LDE0MDkgMzU5LDgxMyAxMTIxLDgxMyAxMTIxLDE0MDkgMTMxMiwxNDA5IDEzMTIsMCAxMTIxLDAgWiIvPiYjeGE7ICAgPGdseXBoIHVuaWNvZGU9ItCcIiBob3Jpei1hZHYteD0iMTM3NyIgZD0iTSAxMzY2LDAgTCAxMzY2LDk0MCBDIDEzNjYsMTA0NCAxMzY5LDExNDQgMTM3NSwxMjQwIDEzNDIsMTEyMSAxMzEzLDEwMjcgMTI4Nyw5NjAgTCA5MjMsMCA3ODksMCA0MjAsOTYwIDM2NCwxMTMwIDMzMSwxMjQwIDMzNCwxMTI5IDMzOCw5NDAgMzM4LDAgMTY4LDAgMTY4LDE0MDkgNDE5LDE0MDkgNzk0LDQzMiBDIDgwNywzOTMgODIwLDM1MSA4MzMsMzA2IDg0NSwyNjEgODUzLDIyOCA4NTcsMjA4IDg2MiwyMzUgODc0LDI3NSA4OTEsMzMwIDkwOCwzODQgOTE5LDQxOCA5MjUsNDMyIEwgMTI5MywxNDA5IDE1MzgsMTQwOSAxNTM4LDAgMTM2NiwwIFoiLz4mI3hhOyAgIDxnbHlwaCB1bmljb2RlPSLQmCIgaG9yaXotYWR2LXg9IjExNjUiIGQ9Ik0gMTY4LDAgTCAxNjgsMTQwOSAzNDAsMTQwOSAzNDAsNDg1IEMgMzQwLDQwOSAzMzcsMzE4IDMzMiwyMTEgTCAxMDgyLDE0MDkgMTMwNCwxNDA5IDEzMDQsMCAxMTM0LDAgMTEzNCw5MzYgQyAxMTM0LDEwMTcgMTEzNiwxMTAyIDExNDAsMTE5MCBMIDM5OCwwIDE2OCwwIFoiLz4mI3hhOyAgIDxnbHlwaCB1bmljb2RlPSJ9IiBob3Jpei1hZHYteD0iNjM2IiBkPSJNIDk0LC0yOTYgQyAxNTUsLTI5NiAxOTgsLTI3OCAyMjUsLTI0MiAyNTEsLTIwNSAyNjQsLTE1MiAyNjQsLTgxIEwgMjY0LDI3NiBDIDI2NCwzNDEgMjgxLDM5NyAzMTYsNDQyIDM1MSw0ODcgMzk4LDUxNyA0NTcsNTMwIEwgNDU3LDUzMiBDIDQwMCw1NDUgMzUzLDU3NSAzMTgsNjIwIDI4Miw2NjUgMjY0LDcxOSAyNjQsNzg0IEwgMjY0LDExNDAgQyAyNjQsMTIxMiAyNTEsMTI2NiAyMjUsMTMwMiAxOTgsMTMzNyAxNTUsMTM1NSA5NCwxMzU1IEwgMzQsMTM1NSAzNCwxNDg0IDE2NiwxNDg0IEMgMjUzLDE0ODQgMzE5LDE0NTkgMzY0LDE0MDggNDA4LDEzNTcgNDMwLDEyODUgNDMwLDExOTEgTCA0MzAsODI5IEMgNDMwLDc1MiA0NDgsNjk0IDQ4Myw2NTUgNTE4LDYxNiA1NzMsNTk2IDY0Nyw1OTMgTCA2NDcsNDY2IEMgNTcyLDQ2MyA1MTgsNDQzIDQ4Myw0MDQgNDQ4LDM2NSA0MzAsMzA3IDQzMCwyMjkgTCA0MzAsLTEzMiBDIDQzMCwtMjI0IDQwNywtMjk2IDM2MiwtMzQ4IDMxNiwtMzk5IDI1MSwtNDI1IDE2NiwtNDI1IEwgMzQsLTQyNSAzNCwtMjk2IDk0LC0yOTYgWiIvPiYjeGE7ICAgPGdseXBoIHVuaWNvZGU9InsiIGhvcml6LWFkdi14PSI2MzYiIGQ9Ik0gNTEzLC00MjUgQyA0MjgsLTQyNSAzNjMsLTM5OSAzMTgsLTM0OCAyNzIsLTI5NyAyNDksLTIyNSAyNDksLTEzMiBMIDI0OSwyMjkgQyAyNDksMzA3IDIzMiwzNjUgMTk3LDQwNCAxNjIsNDQyIDEwNyw0NjMgMzQsNDY2IEwgMzQsNTkzIEMgMTA3LDU5NiAxNjEsNjE2IDE5Niw2NTUgMjMxLDY5MyAyNDksNzUxIDI0OSw4MjkgTCAyNDksMTE5MSBDIDI0OSwxMjg1IDI3MSwxMzU3IDMxNiwxNDA4IDM2MCwxNDU5IDQyNiwxNDg0IDUxMywxNDg0IEwgNjQ4LDE0ODQgNjQ4LDEzNTUgNTg1LDEzNTUgQyA1MjQsMTM1NSA0ODEsMTMzNyA0NTYsMTMwMiA0MzAsMTI2NiA0MTcsMTIxMiA0MTcsMTE0MCBMIDQxNyw3ODQgQyA0MTcsNzIxIDM5OSw2NjcgMzY0LDYyMiAzMjksNTc2IDI4Miw1NDYgMjIzLDUzMiBMIDIyMyw1MzAgQyAyODIsNTE2IDMzMCw0ODYgMzY1LDQ0MSA0MDAsMzk2IDQxNywzNDEgNDE3LDI3NiBMIDQxNywtODEgQyA0MTcsLTE1MiA0MzAsLTIwNSA0NTYsLTI0MiA0ODEsLTI3OCA1MjQsLTI5NiA1ODUsLTI5NiBMIDY0OCwtMjk2IDY0OCwtNDI1IDUxMywtNDI1IFoiLz4mI3hhOyAgIDxnbHlwaCB1bmljb2RlPSJ4IiBob3Jpei1hZHYteD0iMTAwNiIgZD0iTSA4MDEsMCBMIDUxMCw0NDQgMjE3LDAgMjMsMCA0MDgsNTU2IDQxLDEwODIgMjQwLDEwODIgNTEwLDY2MSA3NzgsMTA4MiA5NzksMTA4MiA2MTIsNTU4IDEwMDIsMCA4MDEsMCBaIi8+JiN4YTsgICA8Z2x5cGggdW5pY29kZT0idiIgaG9yaXotYWR2LXg9IjEwMzMiIGQ9Ik0gNjEzLDAgTCA0MDAsMCA3LDEwODIgMTk5LDEwODIgNDM3LDM3OCBDIDQ0NiwzNTEgNDY5LDI3MiA1MDYsMTQxIEwgNTQxLDI1OCA1ODAsMzc2IDgyNiwxMDgyIDEwMTcsMTA4MiA2MTMsMCBaIi8+JiN4YTsgICA8Z2x5cGggdW5pY29kZT0idSIgaG9yaXotYWR2LXg9Ijg3NCIgZD0iTSAzMTQsMTA4MiBMIDMxNCwzOTYgQyAzMTQsMzI1IDMyMSwyNjkgMzM1LDIzMCAzNDksMTkxIDM3MSwxNjIgNDAyLDE0NSA0MzMsMTI4IDQ3OCwxMTkgNTM3LDExOSA2MjQsMTE5IDY5MiwxNDkgNzQyLDIwOCA3OTIsMjY3IDgxNywzNTAgODE3LDQ1NSBMIDgxNywxMDgyIDk5NywxMDgyIDk5NywyMzEgQyA5OTcsMTA1IDk5OSwyOCAxMDAzLDAgTCA4MzMsMCBDIDgzMiwzIDgzMiwxMiA4MzEsMjcgODMwLDQyIDgzMCw1OSA4MjksNzggODI4LDk3IDgyNiwxMzIgODI1LDE4NSBMIDgyMiwxODUgQyA3ODEsMTEwIDczMyw1OCA2NzksMjcgNjI0LC00IDU1NywtMjAgNDc2LC0yMCAzNTcsLTIwIDI3MSwxMCAyMTYsNjkgMTYxLDEyOCAxMzMsMjI1IDEzMywzNjEgTCAxMzMsMTA4MiAzMTQsMTA4MiBaIi8+JiN4YTsgICA8Z2x5cGggdW5pY29kZT0idCIgaG9yaXotYWR2LXg9IjUzMSIgZD0iTSA1NTQsOCBDIDQ5NSwtOCA0MzQsLTE2IDM3MiwtMTYgMjI4LC0xNiAxNTYsNjYgMTU2LDIyOSBMIDE1Niw5NTEgMzEsOTUxIDMxLDEwODIgMTYzLDEwODIgMjE2LDEzMjQgMzM2LDEzMjQgMzM2LDEwODIgNTM2LDEwODIgNTM2LDk1MSAzMzYsOTUxIDMzNiwyNjggQyAzMzYsMjE2IDM0NSwxODAgMzYyLDE1OSAzNzksMTM4IDQwOCwxMjcgNDUwLDEyNyA0NzQsMTI3IDUwOSwxMzIgNTU0LDE0MSBMIDU1NCw4IFoiLz4mI3hhOyAgIDxnbHlwaCB1bmljb2RlPSJzIiBob3Jpei1hZHYteD0iOTAxIiBkPSJNIDk1MCwyOTkgQyA5NTAsMTk3IDkxMiwxMTggODM1LDYzIDc1OCw4IDY1MCwtMjAgNTExLC0yMCAzNzYsLTIwIDI3MywyIDIwMCw0NyAxMjcsOTEgNzksMTYwIDU3LDI1NCBMIDIxNiwyODUgQyAyMzEsMjI3IDI2MywxODUgMzExLDE1OCAzNTksMTMxIDQyNiwxMTcgNTExLDExNyA2MDIsMTE3IDY2OSwxMzEgNzEyLDE1OSA3NTQsMTg3IDc3NSwyMjkgNzc1LDI4NSA3NzUsMzI4IDc2MCwzNjIgNzMxLDM4OSA3MDIsNDE2IDY1NCw0MzggNTg5LDQ1NSBMIDQ2MCw0ODkgQyAzNTcsNTE2IDI4Myw1NDIgMjQwLDU2OCAxOTYsNTkzIDE2Miw2MjQgMTM3LDY2MSAxMTIsNjk4IDEwMCw3NDMgMTAwLDc5NiAxMDAsODk1IDEzNSw5NzAgMjA2LDEwMjIgMjc2LDEwNzMgMzc4LDEwOTkgNTEzLDEwOTkgNjMyLDEwOTkgNzI3LDEwNzggNzk4LDEwMzYgODY4LDk5NCA5MTIsOTI3IDkzMSw4MzQgTCA3NjksODE0IEMgNzU5LDg2MiA3MzIsODk5IDY4OSw5MjUgNjQ1LDk1MCA1ODYsOTYzIDUxMyw5NjMgNDMyLDk2MyAzNzIsOTUxIDMzMyw5MjYgMjk0LDkwMSAyNzUsODY0IDI3NSw4MTQgMjc1LDc4MyAyODMsNzU4IDI5OSw3MzggMzE1LDcxOCAzMzksNzAxIDM3MCw2ODcgNDAxLDY3MyA0NjcsNjU0IDU2OCw2MjkgNjYzLDYwNSA3MzIsNTgzIDc3NCw1NjMgODE2LDU0MiA4NDksNTIwIDg3NCw0OTUgODk4LDQ3MCA5MTcsNDQyIDkzMCw0MTAgOTQzLDM3NyA5NTAsMzQwIDk1MCwyOTkgWiIvPiYjeGE7ICAgPGdseXBoIHVuaWNvZGU9InIiIGhvcml6LWFkdi14PSI1MzAiIGQ9Ik0gMTQyLDAgTCAxNDIsODMwIEMgMTQyLDkwNiAxNDAsOTkwIDEzNiwxMDgyIEwgMzA2LDEwODIgQyAzMTEsOTU5IDMxNCw4ODYgMzE0LDg2MSBMIDMxOCw4NjEgQyAzNDcsOTU0IDM4MCwxMDE3IDQxNywxMDUxIDQ1NCwxMDg1IDUwNywxMTAyIDU3NSwxMTAyIDU5OSwxMTAyIDYyMywxMDk5IDY0OCwxMDkyIEwgNjQ4LDkyNyBDIDYyNCw5MzQgNTkyLDkzNyA1NTIsOTM3IDQ3Nyw5MzcgNDIwLDkwNSAzODEsODQxIDM0Miw3NzYgMzIyLDY4NCAzMjIsNTY0IEwgMzIyLDAgMTQyLDAgWiIvPiYjeGE7ICAgPGdseXBoIHVuaWNvZGU9InEiIGhvcml6LWFkdi14PSI5MjciIGQ9Ik0gNDg0LC0yMCBDIDM0NywtMjAgMjQ2LDI2IDE4MiwxMTkgMTE4LDIxMiA4NiwzNTEgODYsNTM2IDg2LDkxMyAyMTksMTEwMiA0ODQsMTEwMiA1NjYsMTEwMiA2MzQsMTA4OCA2ODcsMTA1OSA3NDAsMTAzMCA3ODUsOTgxIDgyMSw5MTQgTCA4MjMsOTE0IEMgODIzLDkzNCA4MjQsOTY5IDgyNywxMDE4IDgzMCwxMDY3IDgzMiwxMDkzIDgzNSwxMDk2IEwgMTAwOCwxMDk2IEMgMTAwMywxMDU3IDEwMDEsOTU4IDEwMDEsODAxIEwgMTAwMSwtNDI1IDgyMSwtNDI1IDgyMSwxNCA4MjUsMTc4IDgyMywxNzggQyA3ODcsMTA3IDc0Myw1NiA2OTAsMjYgNjM3LC01IDU2OSwtMjAgNDg0LC0yMCBaIE0gODIxLDU1NCBDIDgyMSw2OTUgNzk4LDc5OSA3NTIsODY3IDcwNiw5MzUgNjMzLDk2OSA1MzIsOTY5IDQ0MSw5NjkgMzc1LDkzNSAzMzUsODY3IDI5NSw3OTkgMjc1LDY5MSAyNzUsNTQyIDI3NSwzOTEgMjk1LDI4MiAzMzYsMjE3IDM3NiwxNTIgNDQxLDExOSA1MzAsMTE5IDYzMiwxMTkgNzA2LDE1NSA3NTIsMjI4IDc5OCwzMDEgODIxLDQwOSA4MjEsNTU0IFoiLz4mI3hhOyAgIDxnbHlwaCB1bmljb2RlPSJwIiBob3Jpei1hZHYteD0iOTUzIiBkPSJNIDEwNTMsNTQ2IEMgMTA1MywxNjkgOTIwLC0yMCA2NTUsLTIwIDQ4OCwtMjAgMzc2LDQzIDMxOSwxNjggTCAzMTQsMTY4IEMgMzE3LDE2MyAzMTgsMTA2IDMxOCwtMiBMIDMxOCwtNDI1IDEzOCwtNDI1IDEzOCw4NjEgQyAxMzgsOTcyIDEzNiwxMDQ2IDEzMiwxMDgyIEwgMzA2LDEwODIgQyAzMDcsMTA3OSAzMDgsMTA3MCAzMDksMTA1NCAzMTAsMTAzNyAzMTIsMTAxMiAzMTQsOTc4IDMxNSw5NDQgMzE2LDkyMSAzMTYsOTA4IEwgMzIwLDkwOCBDIDM1Miw5NzUgMzk0LDEwMjQgNDQ3LDEwNTUgNTAwLDEwODYgNTY5LDExMDEgNjU1LDExMDEgNzg4LDExMDEgODg4LDEwNTYgOTU0LDk2NyAxMDIwLDg3OCAxMDUzLDczNyAxMDUzLDU0NiBaIE0gODY0LDU0MiBDIDg2NCw2OTMgODQ0LDgwMCA4MDMsODY1IDc2Miw5MzAgNjk4LDk2MiA2MDksOTYyIDUzOCw5NjIgNDgyLDk0NyA0NDIsOTE3IDQwMSw4ODcgMzcxLDg0MCAzNTAsNzc3IDMyOSw3MTMgMzE4LDYzMCAzMTgsNTI4IDMxOCwzODYgMzQxLDI4MSAzODYsMjE0IDQzMSwxNDcgNTA1LDExMyA2MDcsMTEzIDY5NiwxMTMgNzYyLDE0NiA4MDMsMjEyIDg0NCwyNzcgODY0LDM4NyA4NjQsNTQyIFoiLz4mI3hhOyAgIDxnbHlwaCB1bmljb2RlPSJvIiBob3Jpei1hZHYteD0iOTgwIiBkPSJNIDEwNTMsNTQyIEMgMTA1MywzNTMgMTAxMSwyMTIgOTI4LDExOSA4NDUsMjYgNzI0LC0yMCA1NjUsLTIwIDQwNywtMjAgMjg4LDI4IDIwNywxMjUgMTI2LDIyMSA4NiwzNjAgODYsNTQyIDg2LDkxNSAyNDgsMTEwMiA1NzEsMTEwMiA3MzYsMTEwMiA4NTgsMTA1NyA5MzYsOTY2IDEwMTQsODc1IDEwNTMsNzMzIDEwNTMsNTQyIFogTSA4NjQsNTQyIEMgODY0LDY5MSA4NDIsODAwIDc5OCw4NjggNzUzLDkzNSA2NzksOTY5IDU3NCw5NjkgNDY5LDk2OSAzOTMsOTM1IDM0Niw4NjYgMjk5LDc5NyAyNzUsNjg5IDI3NSw1NDIgMjc1LDM5OSAyOTgsMjkyIDM0NSwyMjEgMzkxLDE0OSA0NjQsMTEzIDU2MywxMTMgNjcxLDExMyA3NDgsMTQ4IDc5NSwyMTcgODQxLDI4NiA4NjQsMzk1IDg2NCw1NDIgWiIvPiYjeGE7ICAgPGdseXBoIHVuaWNvZGU9Im4iIGhvcml6LWFkdi14PSI4NzQiIGQ9Ik0gODI1LDAgTCA4MjUsNjg2IEMgODI1LDc1NyA4MTgsODEzIDgwNCw4NTIgNzkwLDg5MSA3NjgsOTIwIDczNyw5MzcgNzA2LDk1NCA2NjEsOTYzIDYwMiw5NjMgNTE1LDk2MyA0NDcsOTMzIDM5Nyw4NzQgMzQ3LDgxNSAzMjIsNzMyIDMyMiw2MjcgTCAzMjIsMCAxNDIsMCAxNDIsODUxIEMgMTQyLDk3NyAxNDAsMTA1NCAxMzYsMTA4MiBMIDMwNiwxMDgyIEMgMzA3LDEwNzkgMzA3LDEwNzAgMzA4LDEwNTUgMzA5LDEwNDAgMzEwLDEwMjQgMzExLDEwMDUgMzEyLDk4NiAzMTMsOTUwIDMxNCw4OTcgTCAzMTcsODk3IEMgMzU4LDk3MiA0MDYsMTAyNSA0NjEsMTA1NiA1MTUsMTA4NyA1ODIsMTEwMiA2NjMsMTEwMiA3ODIsMTEwMiA4NjksMTA3MyA5MjQsMTAxNCA5NzksOTU1IDEwMDYsODU3IDEwMDYsNzIxIEwgMTAwNiwwIDgyNSwwIFoiLz4mI3hhOyAgIDxnbHlwaCB1bmljb2RlPSJtIiBob3Jpei1hZHYteD0iMTQ1NyIgZD0iTSA3NjgsMCBMIDc2OCw2ODYgQyA3NjgsNzkxIDc1NCw4NjMgNzI1LDkwMyA2OTYsOTQzIDY0NSw5NjMgNTcwLDk2MyA0OTMsOTYzIDQzMyw5MzQgMzg4LDg3NSAzNDMsODE2IDMyMSw3MzQgMzIxLDYyNyBMIDMyMSwwIDE0MiwwIDE0Miw4NTEgQyAxNDIsOTc3IDE0MCwxMDU0IDEzNiwxMDgyIEwgMzA2LDEwODIgQyAzMDcsMTA3OSAzMDcsMTA3MCAzMDgsMTA1NSAzMDksMTA0MCAzMTAsMTAyNCAzMTEsMTAwNSAzMTIsOTg2IDMxMyw5NTAgMzE0LDg5NyBMIDMxNyw4OTcgQyAzNTYsOTc0IDQwMCwxMDI3IDQ1MCwxMDU3IDUwMCwxMDg3IDU2MSwxMTAyIDYzMywxMTAyIDcxNSwxMTAyIDc4MCwxMDg2IDgyOCwxMDUzIDg3NSwxMDIwIDkwOCw5NjggOTI3LDg5NyBMIDkzMCw4OTcgQyA5NjcsOTcwIDEwMTMsMTAyMiAxMDY2LDEwNTQgMTExOSwxMDg2IDExODMsMTEwMiAxMjU4LDExMDIgMTM2NywxMTAyIDE0NDcsMTA3MiAxNDk3LDEwMTMgMTU0Niw5NTQgMTU3MSw4NTYgMTU3MSw3MjEgTCAxNTcxLDAgMTM5MywwIDEzOTMsNjg2IEMgMTM5Myw3OTEgMTM3OSw4NjMgMTM1MCw5MDMgMTMyMSw5NDMgMTI3MCw5NjMgMTE5NSw5NjMgMTExNiw5NjMgMTA1NSw5MzQgMTAxMiw4NzYgOTY4LDgxNyA5NDYsNzM0IDk0Niw2MjcgTCA5NDYsMCA3NjgsMCBaIi8+JiN4YTsgICA8Z2x5cGggdW5pY29kZT0ibCIgaG9yaXotYWR2LXg9IjE4NyIgZD0iTSAxMzgsMCBMIDEzOCwxNDg0IDMxOCwxNDg0IDMxOCwwIDEzOCwwIFoiLz4mI3hhOyAgIDxnbHlwaCB1bmljb2RlPSJrIiBob3Jpei1hZHYteD0iOTAxIiBkPSJNIDgxNiwwIEwgNDUwLDQ5NCAzMTgsMzg1IDMxOCwwIDEzOCwwIDEzOCwxNDg0IDMxOCwxNDg0IDMxOCw1NTcgNzkzLDEwODIgMTAwNCwxMDgyIDU2NSw2MTcgMTAyNywwIDgxNiwwIFoiLz4mI3hhOyAgIDxnbHlwaCB1bmljb2RlPSJqIiBob3Jpei1hZHYteD0iMzcyIiBkPSJNIDEzNywxMzEyIEwgMTM3LDE0ODQgMzE3LDE0ODQgMzE3LDEzMTIgMTM3LDEzMTIgWiBNIDMxNywtMTM0IEMgMzE3LC0yMzYgMjk3LC0zMTAgMjU3LC0zNTYgMjE3LC00MDIgMTU3LC00MjUgNzcsLTQyNSAyNiwtNDI1IC0xNywtNDIyIC01MCwtNDE2IEwgLTUwLC0yNzcgMTIsLTI4MyBDIDU4LC0yODMgOTAsLTI3MSAxMDksLTI0NyAxMjgsLTIyMyAxMzcsLTE3NiAxMzcsLTEwNyBMIDEzNywxMDgyIDMxNywxMDgyIDMxNywtMTM0IFoiLz4mI3hhOyAgIDxnbHlwaCB1bmljb2RlPSJpIiBob3Jpei1hZHYteD0iMTg3IiBkPSJNIDEzNywxMzEyIEwgMTM3LDE0ODQgMzE3LDE0ODQgMzE3LDEzMTIgMTM3LDEzMTIgWiBNIDEzNywwIEwgMTM3LDEwODIgMzE3LDEwODIgMzE3LDAgMTM3LDAgWiIvPiYjeGE7ICAgPGdseXBoIHVuaWNvZGU9ImgiIGhvcml6LWFkdi14PSI4NzQiIGQ9Ik0gMzE3LDg5NyBDIDM1Niw5NjggNDAyLDEwMjAgNDU3LDEwNTMgNTExLDEwODYgNTgwLDExMDIgNjYzLDExMDIgNzgwLDExMDIgODY3LDEwNzMgOTIzLDEwMTUgOTc4LDk1NiAxMDA2LDg1OCAxMDA2LDcyMSBMIDEwMDYsMCA4MjUsMCA4MjUsNjg2IEMgODI1LDc2MiA4MTgsODE5IDgwNCw4NTYgNzkwLDg5MyA3NjcsOTIwIDczNSw5MzcgNzAzLDk1NCA2NTksOTYzIDYwMiw5NjMgNTE3LDk2MyA0NTAsOTM0IDM5OSw4NzUgMzQ4LDgxNiAzMjIsNzM3IDMyMiw2MzggTCAzMjIsMCAxNDIsMCAxNDIsMTQ4NCAzMjIsMTQ4NCAzMjIsMTA5OCBDIDMyMiwxMDU3IDMyMSwxMDE1IDMxOSw5NzIgMzE2LDkyOSAzMTUsOTA0IDMxNCw4OTcgTCAzMTcsODk3IFoiLz4mI3hhOyAgIDxnbHlwaCB1bmljb2RlPSJnIiBob3Jpei1hZHYteD0iOTI3IiBkPSJNIDU0OCwtNDI1IEMgNDMwLC00MjUgMzM2LC00MDIgMjY2LC0zNTYgMTk2LC0zMDkgMTUxLC0yNDMgMTMxLC0xNTggTCAzMTIsLTEzMiBDIDMyNCwtMTgyIDM1MSwtMjIwIDM5MiwtMjQ4IDQzMywtMjc0IDQ4NiwtMjg4IDU1MywtMjg4IDczMiwtMjg4IDgyMiwtMTgzIDgyMiwyNyBMIDgyMiwyMDEgODIwLDIwMSBDIDc4NiwxMzIgNzM5LDgwIDY4MCw0NSA2MjEsMTAgNTUxLC04IDQ3MiwtOCAzMzksLTggMjQyLDM2IDE4MCwxMjQgMTE3LDIxMiA4NiwzNTAgODYsNTM5IDg2LDczMCAxMjAsODcyIDE4Nyw5NjMgMjU0LDEwNTQgMzU1LDEwOTkgNDkyLDEwOTkgNTY5LDEwOTkgNjM1LDEwODIgNjkyLDEwNDcgNzQ4LDEwMTIgNzkxLDk2MiA4MjIsODk3IEwgODI0LDg5NyBDIDgyNCw5MTcgODI1LDk1MiA4MjgsMTAwMSA4MzEsMTA1MCA4MzMsMTA3NyA4MzYsMTA4MiBMIDEwMDcsMTA4MiBDIDEwMDMsMTA0NiAxMDAxLDk3MSAxMDAxLDg1OCBMIDEwMDEsMzEgQyAxMDAxLC0yNzMgODUwLC00MjUgNTQ4LC00MjUgWiBNIDgyMiw1NDEgQyA4MjIsNjI5IDgxMCw3MDUgNzg2LDc2OSA3NjIsODMyIDcyOCw4ODEgNjg1LDkxNSA2NDEsOTQ4IDU5MSw5NjUgNTM2LDk2NSA0NDQsOTY1IDM3Nyw5MzIgMzM1LDg2NSAyOTMsNzk4IDI3Miw2OTAgMjcyLDU0MSAyNzIsMzkzIDI5MiwyODcgMzMxLDIyMiAzNzAsMTU3IDQzOCwxMjUgNTMzLDEyNSA1OTAsMTI1IDY0MCwxNDIgNjg0LDE3NSA3MjgsMjA4IDc2MiwyNTYgNzg2LDMxOSA4MTAsMzgxIDgyMiw0NTUgODIyLDU0MSBaIi8+JiN4YTsgICA8Z2x5cGggdW5pY29kZT0iZiIgaG9yaXotYWR2LXg9IjU1NyIgZD0iTSAzNjEsOTUxIEwgMzYxLDAgMTgxLDAgMTgxLDk1MSAyOSw5NTEgMjksMTA4MiAxODEsMTA4MiAxODEsMTIwNCBDIDE4MSwxMzAzIDIwMywxMzc0IDI0NiwxNDE3IDI4OSwxNDYwIDM1NiwxNDgyIDQ0NSwxNDgyIDQ5NSwxNDgyIDUzNywxNDc4IDU3MiwxNDcwIEwgNTcyLDEzMzMgQyA1NDIsMTMzOCA1MTUsMTM0MSA0OTIsMTM0MSA0NDYsMTM0MSA0MTMsMTMyOSAzOTIsMTMwNiAzNzEsMTI4MyAzNjEsMTI0MCAzNjEsMTE3OSBMIDM2MSwxMDgyIDU3MiwxMDgyIDU3Miw5NTEgMzYxLDk1MSBaIi8+JiN4YTsgICA8Z2x5cGggdW5pY29kZT0iZSIgaG9yaXotYWR2LXg9Ijk4MCIgZD0iTSAyNzYsNTAzIEMgMjc2LDM3OSAzMDIsMjgzIDM1MywyMTYgNDA0LDE0OSA0NzksMTE1IDU3OCwxMTUgNjU2LDExNSA3MTksMTMxIDc2NiwxNjIgODEzLDE5MyA4NDQsMjMzIDg2MSwyODEgTCAxMDE5LDIzNiBDIDk1NCw2NSA4MDcsLTIwIDU3OCwtMjAgNDE4LC0yMCAyOTYsMjggMjEzLDEyMyAxMjksMjE4IDg3LDM2MCA4Nyw1NDggODcsNzI3IDEyOSw4NjQgMjEzLDk1OSAyOTYsMTA1NCA0MTYsMTEwMiA1NzEsMTEwMiA4ODksMTEwMiAxMDQ4LDkxMCAxMDQ4LDUyNyBMIDEwNDgsNTAzIDI3Niw1MDMgWiBNIDg2Miw2NDEgQyA4NTIsNzU1IDgyMyw4MzggNzc1LDg5MSA3MjcsOTQzIDY1OCw5NjkgNTY4LDk2OSA0ODEsOTY5IDQxMiw5NDAgMzYxLDg4MiAzMTAsODIzIDI4Miw3NDMgMjc4LDY0MSBMIDg2Miw2NDEgWiIvPiYjeGE7ICAgPGdseXBoIHVuaWNvZGU9ImQiIGhvcml6LWFkdi14PSI5MjciIGQ9Ik0gODIxLDE3NCBDIDc4OCwxMDUgNzQ0LDU1IDY4OSwyNSA2MzQsLTUgNTY1LC0yMCA0ODQsLTIwIDM0NywtMjAgMjQ3LDI2IDE4MywxMTggMTE4LDIxMCA4NiwzNDkgODYsNTM2IDg2LDkxMyAyMTksMTEwMiA0ODQsMTEwMiA1NjYsMTEwMiA2MzQsMTA4NyA2ODksMTA1NyA3NDQsMTAyNyA3ODgsOTc5IDgyMSw5MTQgTCA4MjMsOTE0IDgyMSwxMDM1IDgyMSwxNDg0IDEwMDEsMTQ4NCAxMDAxLDIyMyBDIDEwMDEsMTEwIDEwMDMsMzYgMTAwNywwIEwgODM1LDAgQyA4MzMsMTEgODMxLDM1IDgyOSw3NCA4MjYsMTEzIDgyNSwxNDYgODI1LDE3NCBMIDgyMSwxNzQgWiBNIDI3NSw1NDIgQyAyNzUsMzkxIDI5NSwyODIgMzM1LDIxNyAzNzUsMTUyIDQ0MCwxMTkgNTMwLDExOSA2MzIsMTE5IDcwNiwxNTQgNzUyLDIyNSA3OTgsMjk2IDgyMSw0MDUgODIxLDU1NCA4MjEsNjk3IDc5OCw4MDIgNzUyLDg2OSA3MDYsOTM2IDYzMyw5NjkgNTMyLDk2OSA0NDEsOTY5IDM3Niw5MzYgMzM2LDg2OSAyOTUsODAyIDI3NSw2OTMgMjc1LDU0MiBaIi8+JiN4YTsgICA8Z2x5cGggdW5pY29kZT0iYyIgaG9yaXotYWR2LXg9IjkwMSIgZD0iTSAyNzUsNTQ2IEMgMjc1LDQwMiAyOTgsMjk1IDM0MywyMjYgMzg4LDE1NyA0NTcsMTIyIDU0OCwxMjIgNjEyLDEyMiA2NjYsMTM5IDcwOSwxNzQgNzUyLDIwOSA3NzgsMjYyIDc4OCwzMzQgTCA5NzAsMzIyIEMgOTU2LDIxOCA5MTIsMTM1IDgzNyw3MyA3NjIsMTEgNjY4LC0yMCA1NTMsLTIwIDQwMiwtMjAgMjg2LDI4IDIwNywxMjQgMTI3LDIxOSA4NywzNTkgODcsNTQyIDg3LDcyNCAxMjcsODYzIDIwNyw5NTkgMjg3LDEwNTQgNDAyLDExMDIgNTUxLDExMDIgNjYyLDExMDIgNzU0LDEwNzMgODI3LDEwMTYgOTAwLDk1OSA5NDUsODgwIDk2NCw3NzkgTCA3NzksNzY1IEMgNzcwLDgyNSA3NDYsODczIDcwOCw5MDggNjcwLDk0MyA2MTYsOTYxIDU0Niw5NjEgNDUxLDk2MSAzODIsOTI5IDMzOSw4NjYgMjk2LDgwMyAyNzUsNjk2IDI3NSw1NDYgWiIvPiYjeGE7ICAgPGdseXBoIHVuaWNvZGU9ImIiIGhvcml6LWFkdi14PSI5NTMiIGQ9Ik0gMTA1Myw1NDYgQyAxMDUzLDE2OSA5MjAsLTIwIDY1NSwtMjAgNTczLC0yMCA1MDUsLTUgNDUxLDI1IDM5Niw1NCAzNTIsMTAyIDMxOCwxNjggTCAzMTYsMTY4IEMgMzE2LDE0NyAzMTUsMTE2IDMxMiw3NCAzMDksMzEgMzA3LDcgMzA2LDAgTCAxMzIsMCBDIDEzNiwzNiAxMzgsMTEwIDEzOCwyMjMgTCAxMzgsMTQ4NCAzMTgsMTQ4NCAzMTgsMTA2MSBDIDMxOCwxMDE4IDMxNyw5NjcgMzE0LDkwOCBMIDMxOCw5MDggQyAzNTEsOTc3IDM5NiwxMDI3IDQ1MSwxMDU3IDUwNiwxMDg3IDU3NCwxMTAyIDY1NSwxMTAyIDc5MiwxMTAyIDg5MiwxMDU2IDk1Nyw5NjQgMTAyMSw4NzIgMTA1Myw3MzMgMTA1Myw1NDYgWiBNIDg2NCw1NDAgQyA4NjQsNjkxIDg0NCw4MDAgODA0LDg2NSA3NjQsOTMwIDY5OSw5NjMgNjA5LDk2MyA1MDgsOTYzIDQzNCw5MjggMzg4LDg1OSAzNDEsNzkwIDMxOCw2ODAgMzE4LDUyOSAzMTgsMzg3IDM0MSwyODIgMzg2LDIxNSA0MzEsMTQ3IDUwNSwxMTMgNjA3LDExMyA2OTgsMTEzIDc2MywxNDcgODA0LDIxNCA4NDQsMjgxIDg2NCwzODkgODY0LDU0MCBaIi8+JiN4YTsgICA8Z2x5cGggdW5pY29kZT0iYSIgaG9yaXotYWR2LXg9IjEwNjAiIGQ9Ik0gNDE0LC0yMCBDIDMwNSwtMjAgMjI0LDkgMTY5LDY2IDExNCwxMjMgODcsMjAyIDg3LDMwMiA4Nyw0MTQgMTI0LDUwMCAxOTgsNTYwIDI3MSw2MjAgMzkwLDY1MiA1NTQsNjU2IEwgNzk3LDY2MCA3OTcsNzE5IEMgNzk3LDgwNyA3NzgsODcwIDc0MSw5MDggNzA0LDk0NiA2NDUsOTY1IDU2NSw5NjUgNDg0LDk2NSA0MjYsOTUxIDM4OSw5MjQgMzUyLDg5NyAzMzAsODUzIDMyMyw3OTMgTCAxMzUsODEwIEMgMTY2LDEwMDUgMzEwLDExMDIgNTY5LDExMDIgNzA1LDExMDIgODA3LDEwNzEgODc2LDEwMDkgOTQ1LDk0NiA5NzksODU2IDk3OSw3MzggTCA5NzksMjcyIEMgOTc5LDIxOSA5ODYsMTc5IDEwMDAsMTUyIDEwMTQsMTI1IDEwNDEsMTExIDEwODAsMTExIDEwOTcsMTExIDExMTcsMTEzIDExMzksMTE4IEwgMTEzOSw2IEMgMTA5NCwtNSAxMDQ3LC0xMCAxMDAwLC0xMCA5MzMsLTEwIDg4NSw4IDg1NSw0MyA4MjQsNzggODA3LDEzMiA4MDMsMjA3IEwgNzk3LDIwNyBDIDc1MSwxMjQgNjk4LDY2IDYzNywzMiA1NzYsLTMgNTAxLC0yMCA0MTQsLTIwIFogTSA0NTUsMTE1IEMgNTIxLDExNSA1ODAsMTMwIDYzMSwxNjAgNjgyLDE5MCA3MjMsMjMxIDc1MywyODQgNzgyLDMzNiA3OTcsMzkwIDc5Nyw0NDUgTCA3OTcsNTM0IDYwMCw1MzAgQyA1MTUsNTI5IDQ1MSw1MjAgNDA4LDUwNCAzNjQsNDg4IDMzMCw0NjMgMzA3LDQzMCAyODQsMzk3IDI3MiwzNTMgMjcyLDI5OSAyNzIsMjQwIDI4OCwxOTUgMzIwLDE2MyAzNTEsMTMxIDM5NiwxMTUgNDU1LDExNSBaIi8+JiN4YTsgICA8Z2x5cGggdW5pY29kZT0iViIgaG9yaXotYWR2LXg9IjEzNzciIGQ9Ik0gNzgyLDAgTCA1ODQsMCA5LDE0MDkgMjEwLDE0MDkgNjAwLDQxNyA2ODQsMTY4IDc2OCw0MTcgMTE1NiwxNDA5IDEzNTcsMTQwOSA3ODIsMCBaIi8+JiN4YTsgICA8Z2x5cGggdW5pY29kZT0iUyIgaG9yaXotYWR2LXg9IjExOTIiIGQ9Ik0gMTI3MiwzODkgQyAxMjcyLDI1OSAxMjIxLDE1OCAxMTIwLDg3IDEwMTgsMTYgODc1LC0yMCA2OTAsLTIwIDM0NywtMjAgMTQ4LDk5IDkzLDMzOCBMIDI3OCwzNzUgQyAyOTksMjkwIDM0NSwyMjggNDE0LDE4OSA0ODMsMTQ5IDU3OCwxMjkgNjk3LDEyOSA4MjAsMTI5IDkxNiwxNTAgOTgzLDE5MyAxMDUwLDIzNSAxMDgzLDI5NyAxMDgzLDM3OSAxMDgzLDQyNSAxMDczLDQ2MiAxMDUyLDQ5MSAxMDMxLDUyMCAxMDAxLDU0MyA5NjMsNTYyIDkyNSw1ODEgODgwLDU5NiA4MjcsNjA5IDc3NCw2MjIgNzE2LDYzNSA2NTIsNjUwIDU0MSw2NzUgNDU2LDY5OSAzOTksNzI0IDM0MSw3NDkgMjk1LDc3NiAyNjIsODA3IDIyOSw4MzcgMjAzLDg3MiAxODYsOTEzIDE2OCw5NTQgMTU5LDEwMDAgMTU5LDEwNTMgMTU5LDExNzQgMjA1LDEyNjcgMjk4LDEzMzIgMzkwLDEzOTcgNTIyLDE0MzAgNjk0LDE0MzAgODU0LDE0MzAgOTc2LDE0MDYgMTA2MSwxMzU3IDExNDYsMTMwOCAxMjA1LDEyMjQgMTIzOSwxMTA2IEwgMTA1MSwxMDczIEMgMTAzMCwxMTQ4IDk5MSwxMjAyIDkzMywxMjM2IDg3NSwxMjY5IDc5NSwxMjg2IDY5MiwxMjg2IDU3OSwxMjg2IDQ5MywxMjY3IDQzNCwxMjMwIDM3NSwxMTkzIDM0NSwxMTM3IDM0NSwxMDYzIDM0NSwxMDIwIDM1Nyw5ODQgMzgwLDk1NiA0MDMsOTI3IDQzNiw5MDMgNDc5LDg4NCA1MjIsODY0IDYwOSw4NDAgNzM4LDgxMSA3ODEsODAxIDgyNSw3OTEgODY4LDc4MSA5MTEsNzcwIDk1Miw3NTggOTkxLDc0NCAxMDMwLDcyOSAxMDY3LDcxMiAxMTAyLDY5MyAxMTM2LDY3NCAxMTY2LDY1MCAxMTkxLDYyMiAxMjE2LDU5NCAxMjM2LDU2MSAxMjUxLDUyMyAxMjY1LDQ4NSAxMjcyLDQ0MCAxMjcyLDM4OSBaIi8+JiN4YTsgICA8Z2x5cGggdW5pY29kZT0iUCIgaG9yaXotYWR2LXg9IjExMTIiIGQ9Ik0gMTI1OCw5ODUgQyAxMjU4LDg1MiAxMjE1LDc0NiAxMTI4LDY2NyAxMDQxLDU4OCA5MjIsNTQ5IDc3Myw1NDkgTCAzNTksNTQ5IDM1OSwwIDE2OCwwIDE2OCwxNDA5IDc2MSwxNDA5IEMgOTE5LDE0MDkgMTA0MSwxMzcyIDExMjgsMTI5OCAxMjE1LDEyMjQgMTI1OCwxMTIwIDEyNTgsOTg1IFogTSAxMDY2LDk4MyBDIDEwNjYsMTE2NSA5NTcsMTI1NiA3MzgsMTI1NiBMIDM1OSwxMjU2IDM1OSw3MDAgNzQ2LDcwMCBDIDk1OSw3MDAgMTA2Niw3OTQgMTA2Niw5ODMgWiIvPiYjeGE7ICAgPGdseXBoIHVuaWNvZGU9Ik8iIGhvcml6LWFkdi14PSIxNDMwIiBkPSJNIDE0OTUsNzExIEMgMTQ5NSw1NjQgMTQ2Nyw0MzUgMTQxMSwzMjQgMTM1NCwyMTMgMTI3MywxMjggMTE2OCw2OSAxMDYzLDEwIDkzOCwtMjAgNzk1LC0yMCA2NTAsLTIwIDUyNiw5IDQyMSw2OCAzMTYsMTI3IDIzNSwyMTIgMTgwLDMyMyAxMjUsNDM0IDk3LDU2MyA5Nyw3MTEgOTcsOTM2IDE1OSwxMTEzIDI4MiwxMjQwIDQwNSwxMzY3IDU3NywxNDMwIDc5NywxNDMwIDk0MCwxNDMwIDEwNjUsMTQwMiAxMTcwLDEzNDUgMTI3NSwxMjg4IDEzNTYsMTIwNSAxNDEyLDEwOTYgMTQ2Nyw5ODcgMTQ5NSw4NTkgMTQ5NSw3MTEgWiBNIDEzMDAsNzExIEMgMTMwMCw4ODYgMTI1NiwxMDI0IDExNjksMTEyNCAxMDgxLDEyMjQgOTU3LDEyNzQgNzk3LDEyNzQgNjM2LDEyNzQgNTExLDEyMjUgNDIzLDExMjYgMzM1LDEwMjcgMjkxLDg4OSAyOTEsNzExIDI5MSw1MzQgMzM2LDM5NCA0MjUsMjkxIDUxNCwxODcgNjM3LDEzNSA3OTUsMTM1IDk1OCwxMzUgMTA4MywxODUgMTE3MCwyODYgMTI1NywzODYgMTMwMCw1MjggMTMwMCw3MTEgWiIvPiYjeGE7ICAgPGdseXBoIHVuaWNvZGU9Ik4iIGhvcml6LWFkdi14PSIxMTY1IiBkPSJNIDEwODIsMCBMIDMyOCwxMjAwIDMzMywxMTAzIDMzOCw5MzYgMzM4LDAgMTY4LDAgMTY4LDE0MDkgMzkwLDE0MDkgMTE1MiwyMDEgQyAxMTQ0LDMzMiAxMTQwLDQyNiAxMTQwLDQ4NSBMIDExNDAsMTQwOSAxMzEyLDE0MDkgMTMxMiwwIDEwODIsMCBaIi8+JiN4YTsgICA8Z2x5cGggdW5pY29kZT0iTCIgaG9yaXotYWR2LXg9IjkyNyIgZD0iTSAxNjgsMCBMIDE2OCwxNDA5IDM1OSwxNDA5IDM1OSwxNTYgMTA3MSwxNTYgMTA3MSwwIDE2OCwwIFoiLz4mI3hhOyAgIDxnbHlwaCB1bmljb2RlPSJKIiBob3Jpei1hZHYteD0iODQ4IiBkPSJNIDQ1NywtMjAgQyAyMTgsLTIwIDc3LDEwMyAzMiwzNTAgTCAyMTksMzgxIEMgMjMxLDMwNCAyNTgsMjQzIDMwMCwyMDAgMzQyLDE1NyAzOTUsMTM1IDQ1OCwxMzUgNTI3LDEzNSA1ODIsMTU5IDYyMiwyMDcgNjYyLDI1NCA2ODIsMzI0IDY4Miw0MTYgTCA2ODIsMTI1MyA0MTEsMTI1MyA0MTEsMTQwOSA4NzIsMTQwOSA4NzIsNDIwIEMgODcyLDI4MyA4MzUsMTc2IDc2MSw5OCA2ODcsMTkgNTg2LC0yMCA0NTcsLTIwIFoiLz4mI3hhOyAgIDxnbHlwaCB1bmljb2RlPSJJIiBob3Jpei1hZHYteD0iMjEzIiBkPSJNIDE4OSwwIEwgMTg5LDE0MDkgMzgwLDE0MDkgMzgwLDAgMTg5LDAgWiIvPiYjeGE7ICAgPGdseXBoIHVuaWNvZGU9IkUiIGhvcml6LWFkdi14PSIxMTM4IiBkPSJNIDE2OCwwIEwgMTY4LDE0MDkgMTIzNywxNDA5IDEyMzcsMTI1MyAzNTksMTI1MyAzNTksODAxIDExNzcsODAxIDExNzcsNjQ3IDM1OSw2NDcgMzU5LDE1NiAxMjc4LDE1NiAxMjc4LDAgMTY4LDAgWiIvPiYjeGE7ICAgPGdseXBoIHVuaWNvZGU9IkQiIGhvcml6LWFkdi14PSIxMjE4IiBkPSJNIDEzODEsNzE5IEMgMTM4MSw1NzQgMTM1Myw0NDcgMTI5NiwzMzggMTIzOSwyMjkgMTE1OSwxNDUgMTA1NSw4NyA5NTEsMjkgODMxLDAgNjk1LDAgTCAxNjgsMCAxNjgsMTQwOSA2MzQsMTQwOSBDIDg3MywxNDA5IDEwNTcsMTM0OSAxMTg3LDEyMzAgMTMxNiwxMTEwIDEzODEsOTQwIDEzODEsNzE5IFogTSAxMTg5LDcxOSBDIDExODksODk0IDExNDEsMTAyNyAxMDQ2LDExMTkgOTUwLDEyMTAgODExLDEyNTYgNjMwLDEyNTYgTCAzNTksMTI1NiAzNTksMTUzIDY3MywxNTMgQyA3NzYsMTUzIDg2NywxNzYgOTQ2LDIyMSAxMDI0LDI2NiAxMDg0LDMzMiAxMTI2LDQxNyAxMTY4LDUwMiAxMTg5LDYwMyAxMTg5LDcxOSBaIi8+JiN4YTsgICA8Z2x5cGggdW5pY29kZT0iQyIgaG9yaXotYWR2LXg9IjEzMjQiIGQ9Ik0gNzkyLDEyNzQgQyA2MzYsMTI3NCA1MTUsMTIyNCA0MjgsMTEyNCAzNDEsMTAyMyAyOTgsODg2IDI5OCw3MTEgMjk4LDUzOCAzNDMsNDAwIDQzNCwyOTUgNTI0LDE5MCA2NDYsMTM3IDgwMCwxMzcgOTk3LDEzNyAxMTQ2LDIzNSAxMjQ1LDQzMCBMIDE0MDEsMzUyIEMgMTM0MywyMzEgMTI2MiwxMzggMTE1Nyw3NSAxMDUyLDEyIDkzMCwtMjAgNzkxLC0yMCA2NDksLTIwIDUyNiwxMCA0MjMsNjkgMzE5LDEyOCAyNDAsMjEyIDE4NiwzMjIgMTMxLDQzMSAxMDQsNTYxIDEwNCw3MTEgMTA0LDkzNiAxNjUsMTExMiAyODYsMTIzOSA0MDcsMTM2NiA1NzUsMTQzMCA3OTAsMTQzMCA5NDAsMTQzMCAxMDY1LDE0MDEgMTE2NiwxMzQyIDEyNjcsMTI4MyAxMzQxLDExOTYgMTM4OCwxMDgxIEwgMTIwNywxMDIxIEMgMTE3NCwxMTAzIDExMjIsMTE2NiAxMDUwLDEyMDkgOTc3LDEyNTIgODkxLDEyNzQgNzkyLDEyNzQgWiIvPiYjeGE7ICAgPGdseXBoIHVuaWNvZGU9IkIiIGhvcml6LWFkdi14PSIxMTEyIiBkPSJNIDEyNTgsMzk3IEMgMTI1OCwyNzIgMTIxMiwxNzQgMTEyMSwxMDUgMTAzMCwzNSA5MDMsMCA3NDAsMCBMIDE2OCwwIDE2OCwxNDA5IDY4MCwxNDA5IEMgMTAxMSwxNDA5IDExNzYsMTI5NSAxMTc2LDEwNjcgMTE3Niw5ODQgMTE1Myw5MTQgMTEwNiw4NTcgMTA1OSw4MDAgOTkzLDc2MiA5MDgsNzQzIDEwMjAsNzMwIDExMDYsNjkyIDExNjcsNjMxIDEyMjgsNTY5IDEyNTgsNDkxIDEyNTgsMzk3IFogTSA5ODQsMTA0NCBDIDk4NCwxMTIwIDk1OCwxMTc0IDkwNiwxMjA3IDg1NCwxMjQwIDc3OSwxMjU2IDY4MCwxMjU2IEwgMzU5LDEyNTYgMzU5LDgxMCA2ODAsODEwIEMgNzgyLDgxMCA4NTgsODI5IDkwOSw4NjggOTU5LDkwNiA5ODQsOTY1IDk4NCwxMDQ0IFogTSAxMDY1LDQxMiBDIDEwNjUsNTc4IDk0OCw2NjEgNzE1LDY2MSBMIDM1OSw2NjEgMzU5LDE1MyA3MzAsMTUzIEMgODQ3LDE1MyA5MzIsMTc1IDk4NSwyMTggMTAzOCwyNjEgMTA2NSwzMjYgMTA2NSw0MTIgWiIvPiYjeGE7ICAgPGdseXBoIHVuaWNvZGU9IkEiIGhvcml6LWFkdi14PSIxMzc3IiBkPSJNIDExNjcsMCBMIDEwMDYsNDEyIDM2NCw0MTIgMjAyLDAgNCwwIDU3OSwxNDA5IDc5NiwxNDA5IDEzNjIsMCAxMTY3LDAgWiBNIDY4NSwxMjY1IEwgNjc2LDEyMzcgQyA2NTksMTE4MiA2MzUsMTExMSA2MDIsMTAyNCBMIDQyMiw1NjEgOTQ5LDU2MSA3NjgsMTAyNiBDIDc0OSwxMDcyIDczMSwxMTI0IDcxMiwxMTgyIEwgNjg1LDEyNjUgWiIvPiYjeGE7ICAgPGdseXBoIHVuaWNvZGU9Ij8iIGhvcml6LWFkdi14PSI5ODAiIGQ9Ik0gMTA2MywxMDMyIEMgMTA2Myw5ODIgMTA1Niw5MzcgMTA0MSw4OTggMTAyNiw4NTkgMTAwNSw4MjIgOTc4LDc4OSA5NTEsNzU2IDkwNiw3MTYgODQ0LDY3MSBMIDc2NCw2MTIgQyA3MTYsNTc3IDY4MCw1NDEgNjU3LDUwMyA2MzQsNDY0IDYyMiw0MjIgNjIxLDM3NyBMIDQ0NiwzNzcgQyA0NDcsNDIzIDQ1NSw0NjMgNDY4LDQ5OCA0ODEsNTMzIDQ5Nyw1NjMgNTE4LDU5MCA1MzksNjE3IDU2Miw2NDEgNTg4LDY2MiA2MTQsNjgzIDY0MCw3MDMgNjY3LDcyMiA2OTQsNzQxIDcyMCw3NjAgNzQ2LDc3OSA3NzEsNzk4IDc5NCw4MTkgODE0LDg0MiA4MzQsODY1IDg1MCw4OTIgODYzLDkyMSA4NzUsOTUwIDg4MSw5ODUgODgxLDEwMjQgODgxLDExMDAgODU1LDExNjAgODA0LDEyMDQgNzUyLDEyNDggNjc5LDEyNzAgNTg2LDEyNzAgNDkzLDEyNzAgNDE5LDEyNDcgMzY0LDEyMDAgMzA5LDExNTMgMjc3LDEwODkgMjY4LDEwMDggTCA4NCwxMDIwIEMgMTAxLDExNTIgMTUzLDEyNTMgMjQwLDEzMjQgMzI3LDEzOTUgNDQxLDE0MzAgNTg0LDE0MzAgNzMzLDE0MzAgODUwLDEzOTUgOTM1LDEzMjUgMTAyMCwxMjU0IDEwNjMsMTE1NyAxMDYzLDEwMzIgWiBNIDQzOCwwIEwgNDM4LDIwMSA2MzMsMjAxIDYzMywwIDQzOCwwIFoiLz4mI3hhOyAgIDxnbHlwaCB1bmljb2RlPSI6IiBob3Jpei1hZHYteD0iMjEzIiBkPSJNIDE4Nyw4NzUgTCAxODcsMTA4MiAzODIsMTA4MiAzODIsODc1IDE4Nyw4NzUgWiBNIDE4NywwIEwgMTg3LDIwNyAzODIsMjA3IDM4MiwwIDE4NywwIFoiLz4mI3hhOyAgIDxnbHlwaCB1bmljb2RlPSI5IiBob3Jpei1hZHYteD0iOTgwIiBkPSJNIDEwNDIsNzMzIEMgMTA0Miw0OTEgOTk4LDMwNSA5MTAsMTc1IDgyMSw0NSA2OTUsLTIwIDUzMiwtMjAgNDIyLC0yMCAzMzQsMyAyNjgsNTAgMjAxLDk2IDE1NCwxNzEgMTI1LDI3NCBMIDI5NywzMDEgQyAzMzMsMTg0IDQxMiwxMjUgNTM1LDEyNSA2MzgsMTI1IDcxOCwxNzMgNzc1LDI2OSA4MzIsMzY1IDg2MSw1MDIgODY0LDY4MCA4MzcsNjIwIDc5Miw1NzIgNzI3LDUzNiA2NjIsNDk5IDU5MSw0ODEgNTE0LDQ4MSAzODcsNDgxIDI4Niw1MjQgMjEwLDYxMSAxMzQsNjk4IDk2LDgxMyA5Niw5NTYgOTYsMTEwMyAxMzcsMTIxOSAyMjAsMTMwNCAzMDMsMTM4OCA0MTgsMTQzMCA1NjUsMTQzMCA3MjIsMTQzMCA4NDAsMTM3MiA5MjEsMTI1NiAxMDAyLDExNDAgMTA0Miw5NjYgMTA0Miw3MzMgWiBNIDg0Niw5MDcgQyA4NDYsMTAyMCA4MjAsMTExMiA3NjgsMTE4MSA3MTYsMTI1MCA2NDYsMTI4NCA1NTksMTI4NCA0NzIsMTI4NCA0MDQsMTI1NSAzNTQsMTE5NiAzMDQsMTEzNyAyNzksMTA1NyAyNzksOTU2IDI3OSw4NTMgMzA0LDc3MiAzNTQsNzEzIDQwNCw2NTMgNDcyLDYyMyA1NTcsNjIzIDYwOSw2MjMgNjU3LDYzNSA3MDIsNjU5IDc0Nyw2ODIgNzgyLDcxNiA4MDgsNzU5IDgzMyw4MDIgODQ2LDg1MiA4NDYsOTA3IFoiLz4mI3hhOyAgIDxnbHlwaCB1bmljb2RlPSI4IiBob3Jpei1hZHYteD0iOTgwIiBkPSJNIDEwNTAsMzkzIEMgMTA1MCwyNjMgMTAwOSwxNjIgOTI2LDg5IDg0MywxNiA3MjUsLTIwIDU3MCwtMjAgNDE5LC0yMCAzMDIsMTYgMjE3LDg3IDEzMiwxNTggODksMjYwIDg5LDM5MSA4OSw0ODMgMTE1LDU2MCAxNjgsNjIzIDIyMSw2ODYgMjg4LDcyNCAzNzAsNzM3IEwgMzcwLDc0MSBDIDI5Myw3NTkgMjMzLDc5OCAxODksODU4IDE0NCw5MTggMTIyLDk4OCAxMjIsMTA2OSAxMjIsMTE3NiAxNjIsMTI2MyAyNDMsMTMzMCAzMjMsMTM5NyA0MzEsMTQzMCA1NjYsMTQzMCA3MDUsMTQzMCA4MTQsMTM5NyA4OTUsMTMzMiA5NzUsMTI2NyAxMDE1LDExNzggMTAxNSwxMDY3IDEwMTUsOTg2IDk5Myw5MTYgOTQ4LDg1NiA5MDMsNzk2IDg0Miw3NTggNzY1LDc0MyBMIDc2NSw3MzkgQyA4NTUsNzI0IDkyNSw2ODYgOTc1LDYyNSAxMDI1LDU2MyAxMDUwLDQ4NiAxMDUwLDM5MyBaIE0gODI4LDEwNTcgQyA4MjgsMTIxNiA3NDEsMTI5NiA1NjYsMTI5NiA0ODEsMTI5NiA0MTcsMTI3NiAzNzMsMTIzNiAzMjgsMTE5NiAzMDYsMTEzNiAzMDYsMTA1NyAzMDYsOTc2IDMyOSw5MTUgMzc1LDg3MyA0MjAsODMwIDQ4NSw4MDkgNTY4LDgwOSA2NTMsODA5IDcxNyw4MjkgNzYyLDg2OCA4MDYsOTA3IDgyOCw5NzAgODI4LDEwNTcgWiBNIDg2Myw0MTAgQyA4NjMsNDk3IDgzNyw1NjMgNzg1LDYwOCA3MzMsNjUyIDY2MCw2NzQgNTY2LDY3NCA0NzUsNjc0IDQwMyw2NTAgMzUyLDYwMyAzMDEsNTU1IDI3NSw0ODkgMjc1LDQwNiAyNzUsMjEyIDM3NCwxMTUgNTcyLDExNSA2NzAsMTE1IDc0MywxMzkgNzkxLDE4NiA4MzksMjMzIDg2MywzMDcgODYzLDQxMCBaIi8+JiN4YTsgICA8Z2x5cGggdW5pY29kZT0iMiIgaG9yaXotYWR2LXg9Ijk1NCIgZD0iTSAxMDMsMCBMIDEwMywxMjcgQyAxMzcsMjA1IDE3OSwyNzQgMjI4LDMzNCAyNzcsMzkzIDMyOCw0NDcgMzgyLDQ5NiA0MzYsNTQ0IDQ5MCw1ODkgNTQzLDYzMCA1OTYsNjcxIDY0Myw3MTMgNjg2LDc1NCA3MjksNzk1IDc2Myw4MzkgNzkwLDg4NCA4MTYsOTI5IDgyOSw5ODEgODI5LDEwMzggODI5LDExMTUgODA2LDExNzUgNzYxLDEyMTggNzE2LDEyNjEgNjUzLDEyODIgNTcyLDEyODIgNDk1LDEyODIgNDMyLDEyNjEgMzgzLDEyMjAgMzMzLDExNzggMzA0LDExMTkgMjk1LDEwNDQgTCAxMTEsMTA2MSBDIDEyNCwxMTc0IDE3MiwxMjYzIDI1NSwxMzMwIDMzNywxMzk3IDQ0MywxNDMwIDU3MiwxNDMwIDcxNCwxNDMwIDgyMywxMzk3IDkwMCwxMzMwIDk3NiwxMjYzIDEwMTQsMTE2NyAxMDE0LDEwNDQgMTAxNCw5ODkgMTAwMiw5MzUgOTc3LDg4MSA5NTIsODI3IDkxNCw3NzMgODY1LDcxOSA4MTYsNjY1IDcyMSw1ODEgNTgyLDQ2OCA1MDUsNDA1IDQ0NCwzNDkgMzk5LDI5OSAzNTQsMjQ4IDMyMSwyMDAgMzAxLDE1MyBMIDEwMzYsMTUzIDEwMzYsMCAxMDMsMCBaIi8+JiN4YTsgICA8Z2x5cGggdW5pY29kZT0iMCIgaG9yaXotYWR2LXg9Ijk4MCIgZD0iTSAxMDU5LDcwNSBDIDEwNTksNDcwIDEwMTgsMjkwIDkzNSwxNjYgODUyLDQyIDcyOSwtMjAgNTY3LC0yMCA0MDUsLTIwIDI4Myw0MiAyMDIsMTY1IDEyMSwyODggODAsNDY4IDgwLDcwNSA4MCw5NDcgMTIwLDExMjggMTk5LDEyNDkgMjc4LDEzNzAgNDAyLDE0MzAgNTczLDE0MzAgNzM5LDE0MzAgODYyLDEzNjkgOTQxLDEyNDcgMTAyMCwxMTI1IDEwNTksOTQ0IDEwNTksNzA1IFogTSA4NzYsNzA1IEMgODc2LDkwOCA4NTMsMTA1NiA4MDYsMTE0NyA3NTksMTIzOCA2ODEsMTI4NCA1NzMsMTI4NCA0NjIsMTI4NCAzODMsMTIzOSAzMzUsMTE0OSAyODYsMTA1OSAyNjIsOTExIDI2Miw3MDUgMjYyLDUwNSAyODcsMzU5IDMzNiwyNjYgMzg1LDE3MyA0NjIsMTI3IDU2OSwxMjcgNjc1LDEyNyA3NTMsMTc0IDgwMiwyNjkgODUxLDM2NCA4NzYsNTA5IDg3Niw3MDUgWiIvPiYjeGE7ICAgPGdseXBoIHVuaWNvZGU9Ii8iIGhvcml6LWFkdi14PSI1ODMiIGQ9Ik0gMCwtMjAgTCA0MTEsMTQ4NCA1NjksMTQ4NCAxNjIsLTIwIDAsLTIwIFoiLz4mI3hhOyAgIDxnbHlwaCB1bmljb2RlPSIuIiBob3Jpei1hZHYteD0iMjEzIiBkPSJNIDE4NywwIEwgMTg3LDIxOSAzODIsMjE5IDM4MiwwIDE4NywwIFoiLz4mI3hhOyAgIDxnbHlwaCB1bmljb2RlPSItIiBob3Jpei1hZHYteD0iNTMxIiBkPSJNIDkxLDQ2NCBMIDkxLDYyNCA1OTEsNjI0IDU5MSw0NjQgOTEsNDY0IFoiLz4mI3hhOyAgIDxnbHlwaCB1bmljb2RlPSIrIiBob3Jpei1hZHYteD0iMTAzMyIgZD0iTSA2NzEsNjA4IEwgNjcxLDE4MCA1MjQsMTgwIDUyNCw2MDggMTAwLDYwOCAxMDAsNzU0IDUyNCw3NTQgNTI0LDExODIgNjcxLDExODIgNjcxLDc1NCAxMDk1LDc1NCAxMDk1LDYwOCA2NzEsNjA4IFoiLz4mI3hhOyAgIDxnbHlwaCB1bmljb2RlPSIpIiBob3Jpei1hZHYteD0iNTU3IiBkPSJNIDU1NSw1MjggQyA1NTUsMzM1IDUyNSwxNjIgNDY1LDkgNDA0LC0xNDQgMzExLC0yODkgMTg2LC00MjQgTCAxMiwtNDI0IEMgMTM3LC0yODQgMjI5LC0xMzYgMjg3LDE5IDM0NSwxNzQgMzc0LDM0NCAzNzQsNTMwIDM3NCw3MTYgMzQ1LDg4NyAyODcsMTA0MiAyMjgsMTE5NyAxMzcsMTM0NSAxMiwxNDg0IEwgMTg2LDE0ODQgQyAzMTIsMTM0OCA0MDUsMTIwMyA0NjUsMTA1MCA1MjUsODk2IDU1NSw3MjMgNTU1LDUzMiBMIDU1NSw1MjggWiIvPiYjeGE7ICAgPGdseXBoIHVuaWNvZGU9IigiIGhvcml6LWFkdi14PSI1ODMiIGQ9Ik0gMTI3LDUzMiBDIDEyNyw3MjUgMTU3LDg5OCAyMTgsMTA1MSAyNzgsMTIwNCAzNzEsMTM0OSA0OTYsMTQ4NCBMIDY3MCwxNDg0IEMgNTQ1LDEzNDUgNDU0LDExOTggMzk2LDEwNDIgMzM3LDg4NiAzMDgsNzE1IDMwOCw1MzAgMzA4LDM0NSAzMzcsMTc1IDM5NSwyMCA0NTIsLTEzNSA1NDQsLTI4MyA2NzAsLTQyNCBMIDQ5NiwtNDI0IEMgMzcwLC0yODggMjc3LC0xNDMgMjE3LDExIDE1NywxNjQgMTI3LDMzNyAxMjcsNTI4IEwgMTI3LDUzMiBaIi8+JiN4YTsgICA8Z2x5cGggdW5pY29kZT0iICIgaG9yaXotYWR2LXg9IjU1NiIvPiYjeGE7ICA8L2ZvbnQ+JiN4YTsgPC9kZWZzPiYjeGE7IDxkZWZzIGNsYXNzPSJUZXh0U2hhcGVJbmRleCI+JiN4YTsgIDxnIG9vbzpzbGlkZT0iaWQxIiBvb286aWQtbGlzdD0iaWQzIGlkNCBpZDUgaWQ2IGlkNyBpZDggaWQ5IGlkMTAgaWQxMSBpZDEyIGlkMTMgaWQxNCBpZDE1IGlkMTYgaWQxNyBpZDE4IGlkMTkgaWQyMCIvPiYjeGE7IDwvZGVmcz4mI3hhOyA8ZGVmcyBjbGFzcz0iRW1iZWRkZWRCdWxsZXRDaGFycyI+JiN4YTsgIDxnIGlkPSJidWxsZXQtY2hhci10ZW1wbGF0ZS01NzM1NiIgdHJhbnNmb3JtPSJzY2FsZSgwLjAwMDQ4ODI4MTI1LC0wLjAwMDQ4ODI4MTI1KSI+JiN4YTsgICA8cGF0aCBkPSJNIDU4MCwxMTQxIEwgMTE2Myw1NzEgNTgwLDAgLTQsNTcxIDU4MCwxMTQxIFoiLz4mI3hhOyAgPC9nPiYjeGE7ICA8ZyBpZD0iYnVsbGV0LWNoYXItdGVtcGxhdGUtNTczNTQiIHRyYW5zZm9ybT0ic2NhbGUoMC4wMDA0ODgyODEyNSwtMC4wMDA0ODgyODEyNSkiPiYjeGE7ICAgPHBhdGggZD0iTSA4LDExMjggTCAxMTM3LDExMjggMTEzNywwIDgsMCA4LDExMjggWiIvPiYjeGE7ICA8L2c+JiN4YTsgIDxnIGlkPSJidWxsZXQtY2hhci10ZW1wbGF0ZS0xMDE0NiIgdHJhbnNmb3JtPSJzY2FsZSgwLjAwMDQ4ODI4MTI1LC0wLjAwMDQ4ODI4MTI1KSI+JiN4YTsgICA8cGF0aCBkPSJNIDE3NCwwIEwgNjAyLDczOSAxNzQsMTQ4MSAxNDU2LDczOSAxNzQsMCBaIE0gMTM1OCw3MzkgTCAzMDksMTM0NiA2NTksNzM5IDEzNTgsNzM5IFoiLz4mI3hhOyAgPC9nPiYjeGE7ICA8ZyBpZD0iYnVsbGV0LWNoYXItdGVtcGxhdGUtMTAxMzIiIHRyYW5zZm9ybT0ic2NhbGUoMC4wMDA0ODgyODEyNSwtMC4wMDA0ODgyODEyNSkiPiYjeGE7ICAgPHBhdGggZD0iTSAyMDE1LDczOSBMIDEyNzYsMCA3MTcsMCAxMjYwLDU0MyAxNzQsNTQzIDE3NCw5MzYgMTI2MCw5MzYgNzE3LDE0ODEgMTI3NCwxNDgxIDIwMTUsNzM5IFoiLz4mI3hhOyAgPC9nPiYjeGE7ICA8ZyBpZD0iYnVsbGV0LWNoYXItdGVtcGxhdGUtMTAwMDciIHRyYW5zZm9ybT0ic2NhbGUoMC4wMDA0ODgyODEyNSwtMC4wMDA0ODgyODEyNSkiPiYjeGE7ICAgPHBhdGggZD0iTSAwLC0yIEMgLTcsMTQgLTE2LDI3IC0yNSwzNyBMIDM1Niw1NjcgQyAyNjIsODIzIDIxNSw5NTIgMjE1LDk1NCAyMTUsOTc5IDIyOCw5OTIgMjU1LDk5MiAyNjQsOTkyIDI3Niw5OTAgMjg5LDk4NyAzMTAsOTkxIDMzMSw5OTkgMzU0LDEwMTIgTCAzODEsOTk5IDQ5Miw3NDggNzcyLDEwNDkgODM2LDEwMjQgODYwLDEwNDkgQyA4ODEsMTAzOSA5MDEsMTAyNSA5MjIsMTAwNiA4ODYsOTM3IDgzNSw4NjMgNzcwLDc4NCA3NjksNzgzIDcxMCw3MTYgNTk0LDU4NCBMIDc3NCwyMjMgQyA3NzQsMTk2IDc1MywxNjggNzExLDEzOSBMIDcyNywxMTkgQyA3MTcsOTAgNjk5LDc2IDY3Miw3NiA2NDEsNzYgNTcwLDE3OCA0NTcsMzgxIEwgMTY0LC03NiBDIDE0MiwtMTEwIDExMSwtMTI3IDcyLC0xMjcgMzAsLTEyNyA5LC0xMTAgOCwtNzYgMSwtNjcgLTIsLTUyIC0yLC0zMiAtMiwtMjMgLTEsLTEzIDAsLTIgWiIvPiYjeGE7ICA8L2c+JiN4YTsgIDxnIGlkPSJidWxsZXQtY2hhci10ZW1wbGF0ZS0xMDAwNCIgdHJhbnNmb3JtPSJzY2FsZSgwLjAwMDQ4ODI4MTI1LC0wLjAwMDQ4ODI4MTI1KSI+JiN4YTsgICA8cGF0aCBkPSJNIDI4NSwtMzMgQyAxODIsLTMzIDExMSwzMCA3NCwxNTYgNTIsMjI4IDQxLDMzMyA0MSw0NzEgNDEsNTQ5IDU1LDYxNiA4Miw2NzIgMTE2LDc0MyAxNjksNzc4IDI0MCw3NzggMjkzLDc3OCAzMjgsNzQ3IDM0Niw2ODQgTCAzNjksNTA4IEMgMzc3LDQ0NCAzOTcsNDExIDQyOCw0MTAgTCAxMTYzLDExMTYgQyAxMTc0LDExMjcgMTE5NiwxMTMzIDEyMjksMTEzMyAxMjcxLDExMzMgMTI5MiwxMTE4IDEyOTIsMTA4NyBMIDEyOTIsOTY1IEMgMTI5Miw5MjkgMTI4Miw5MDEgMTI2Miw4ODEgTCA0NDIsNDcgQyAzOTAsLTYgMzM4LC0zMyAyODUsLTMzIFoiLz4mI3hhOyAgPC9nPiYjeGE7ICA8ZyBpZD0iYnVsbGV0LWNoYXItdGVtcGxhdGUtOTY3OSIgdHJhbnNmb3JtPSJzY2FsZSgwLjAwMDQ4ODI4MTI1LC0wLjAwMDQ4ODI4MTI1KSI+JiN4YTsgICA8cGF0aCBkPSJNIDgxMywwIEMgNjMyLDAgNDg5LDU0IDM4MywxNjEgMjc2LDI2OCAyMjMsNDExIDIyMyw1OTIgMjIzLDc3MyAyNzYsOTE2IDM4MywxMDIzIDQ4OSwxMTMwIDYzMiwxMTg0IDgxMywxMTg0IDk5MiwxMTg0IDExMzYsMTEzMCAxMjQ1LDEwMjMgMTM1Myw5MTYgMTQwNyw3NzIgMTQwNyw1OTIgMTQwNyw0MTIgMTM1MywyNjggMTI0NSwxNjEgMTEzNiw1NCA5OTIsMCA4MTMsMCBaIi8+JiN4YTsgIDwvZz4mI3hhOyAgPGcgaWQ9ImJ1bGxldC1jaGFyLXRlbXBsYXRlLTgyMjYiIHRyYW5zZm9ybT0ic2NhbGUoMC4wMDA0ODgyODEyNSwtMC4wMDA0ODgyODEyNSkiPiYjeGE7ICAgPHBhdGggZD0iTSAzNDYsNDU3IEMgMjczLDQ1NyAyMDksNDgzIDE1NSw1MzUgMTAxLDU4NiA3NCw2NDkgNzQsNzIzIDc0LDc5NiAxMDEsODU5IDE1NSw5MTEgMjA5LDk2MyAyNzMsOTg5IDM0Niw5ODkgNDE5LDk4OSA0ODAsOTYzIDUzMSw5MTAgNTgyLDg1OSA2MDgsNzk2IDYwOCw3MjMgNjA4LDY0OCA1ODMsNTg2IDUzMiw1MzUgNDgyLDQ4MyA0MjAsNDU3IDM0Niw0NTcgWiIvPiYjeGE7ICA8L2c+JiN4YTsgIDxnIGlkPSJidWxsZXQtY2hhci10ZW1wbGF0ZS04MjExIiB0cmFuc2Zvcm09InNjYWxlKDAuMDAwNDg4MjgxMjUsLTAuMDAwNDg4MjgxMjUpIj4mI3hhOyAgIDxwYXRoIGQ9Ik0gLTQsNDU5IEwgMTEzNSw0NTkgMTEzNSw2MDYgLTQsNjA2IC00LDQ1OSBaIi8+JiN4YTsgIDwvZz4mI3hhOyAgPGcgaWQ9ImJ1bGxldC1jaGFyLXRlbXBsYXRlLTYxNTQ4IiB0cmFuc2Zvcm09InNjYWxlKDAuMDAwNDg4MjgxMjUsLTAuMDAwNDg4MjgxMjUpIj4mI3hhOyAgIDxwYXRoIGQ9Ik0gMTczLDc0MCBDIDE3Myw5MDMgMjMxLDEwNDMgMzQ2LDExNTkgNDYyLDEyNzQgNjAxLDEzMzIgNzY1LDEzMzIgOTI4LDEzMzIgMTA2NywxMjc0IDExODMsMTE1OSAxMjk5LDEwNDMgMTM1Nyw5MDMgMTM1Nyw3NDAgMTM1Nyw1NzcgMTI5OSw0MzcgMTE4MywzMjIgMTA2NywyMDYgOTI4LDE0OCA3NjUsMTQ4IDYwMSwxNDggNDYyLDIwNiAzNDYsMzIyIDIzMSw0MzcgMTczLDU3NyAxNzMsNzQwIFoiLz4mI3hhOyAgPC9nPiYjeGE7IDwvZGVmcz4mI3hhOyA8Zz4mI3hhOyAgPGcgaWQ9ImlkMiIgY2xhc3M9Ik1hc3Rlcl9TbGlkZSI+JiN4YTsgICA8ZyBpZD0iYmctaWQyIiBjbGFzcz0iQmFja2dyb3VuZCIvPiYjeGE7ICAgPGcgaWQ9ImJvLWlkMiIgY2xhc3M9IkJhY2tncm91bmRPYmplY3RzIi8+JiN4YTsgIDwvZz4mI3hhOyA8L2c+JiN4YTsgPGcgY2xhc3M9IlNsaWRlR3JvdXAiPiYjeGE7ICA8Zz4mI3hhOyAgIDxnIGlkPSJjb250YWluZXItaWQxIj4mI3hhOyAgICA8ZyBpZD0iaWQxIiBjbGFzcz0iU2xpZGUiIGNsaXAtcGF0aD0idXJsKCNwcmVzZW50YXRpb25fY2xpcF9wYXRoKSI+JiN4YTsgICAgIDxnIGNsYXNzPSJQYWdlIj4mI3hhOyAgICAgIDxnIGNsYXNzPSJjb20uc3VuLnN0YXIuZHJhd2luZy5DdXN0b21TaGFwZSI+JiN4YTsgICAgICAgPGcgaWQ9ImlkMyI+JiN4YTsgICAgICAgIDxyZWN0IGNsYXNzPSJCb3VuZGluZ0JveCIgc3Ryb2tlPSJub25lIiBmaWxsPSJub25lIiB4PSIyMTY1IiB5PSIyNzE1IiB3aWR0aD0iNDAxNiIgaGVpZ2h0PSI0OTgxIi8+JiN4YTsgICAgICAgIDxwYXRoIGZpbGw9InJnYigzMCwxNDQsMjU1KSIgc3Ryb2tlPSJub25lIiBkPSJNIDQxNzMsNzY5NCBMIDIxNjYsNzY5NCAyMTY2LDI3MTYgNjE3OSwyNzE2IDYxNzksNzY5NCA0MTczLDc2OTQgWiIvPiYjeGE7ICAgICAgICA8cGF0aCBmaWxsPSJub25lIiBzdHJva2U9InJnYigwLDEyOCwwKSIgZD0iTSA0MTczLDc2OTQgTCAyMTY2LDc2OTQgMjE2NiwyNzE2IDYxNzksMjcxNiA2MTc5LDc2OTQgNDE3Myw3Njk0IFoiLz4mI3hhOyAgICAgICAgPHRleHQgY2xhc3M9IlRleHRTaGFwZSI+PHRzcGFuIGNsYXNzPSJUZXh0UGFyYWdyYXBoIiBmb250LWZhbWlseT0iTGliZXJhdGlvbiBTYW5zLCBzYW5zLXNlcmlmIiBmb250LXNpemU9IjYzNXB4IiBmb250LXdlaWdodD0iNDAwIj48dHNwYW4gY2xhc3M9IlRleHRQb3NpdGlvbiIgeD0iMzg1NSIgeT0iNDcxNSI+PHRzcGFuIGZpbGw9InJnYigwLDAsMCkiIHN0cm9rZT0ibm9uZSI+Q0k8L3RzcGFuPjwvdHNwYW4+PC90c3Bhbj48dHNwYW4gY2xhc3M9IlRleHRQYXJhZ3JhcGgiIGZvbnQtZmFtaWx5PSJMaWJlcmF0aW9uIFNhbnMsIHNhbnMtc2VyaWYiIGZvbnQtc2l6ZT0iNjM1cHgiIGZvbnQtd2VpZ2h0PSI0MDAiPjx0c3BhbiBjbGFzcz0iVGV4dFBvc2l0aW9uIiB4PSIyODMzIiB5PSI1NDI2Ij48dHNwYW4gZmlsbD0icmdiKDAsMCwwKSIgc3Ryb2tlPSJub25lIj5CaXRCdWNrZXQ8L3RzcGFuPjwvdHNwYW4+PC90c3Bhbj48dHNwYW4gY2xhc3M9IlRleHRQYXJhZ3JhcGgiIGZvbnQtZmFtaWx5PSJMaWJlcmF0aW9uIFNhbnMsIHNhbnMtc2VyaWYiIGZvbnQtc2l6ZT0iNjM1cHgiIGZvbnQtd2VpZ2h0PSI0MDAiPjx0c3BhbiBjbGFzcz0iVGV4dFBvc2l0aW9uIiB4PSIzMDgxIiB5PSI2MTM3Ij48dHNwYW4gZmlsbD0icmdiKDAsMCwwKSIgc3Ryb2tlPSJub25lIj5zYnRhdGxhczwvdHNwYW4+PC90c3Bhbj48L3RzcGFuPjwvdGV4dD4mI3hhOyAgICAgICA8L2c+JiN4YTsgICAgICA8L2c+JiN4YTsgICAgICA8ZyBjbGFzcz0iY29tLnN1bi5zdGFyLmRyYXdpbmcuQ3VzdG9tU2hhcGUiPiYjeGE7ICAgICAgIDxnIGlkPSJpZDQiPiYjeGE7ICAgICAgICA8cmVjdCBjbGFzcz0iQm91bmRpbmdCb3giIHN0cm9rZT0ibm9uZSIgZmlsbD0ibm9uZSIgeD0iMjEzMCIgeT0iMTE1ODQiIHdpZHRoPSI0MDY3IiBoZWlnaHQ9IjQwNjciLz4mI3hhOyAgICAgICAgPHBhdGggZmlsbD0icmdiKDI0NSwyMjIsMTc5KSIgc3Ryb2tlPSJub25lIiBkPSJNIDQxNjMsMTU2NDkgTCAyMTMxLDE1NjQ5IDIxMzEsMTE1ODUgNjE5NSwxMTU4NSA2MTk1LDE1NjQ5IDQxNjMsMTU2NDkgWiIvPiYjeGE7ICAgICAgICA8cGF0aCBmaWxsPSJub25lIiBzdHJva2U9InJnYigwLDEyOCwwKSIgZD0iTSA0MTYzLDE1NjQ5IEwgMjEzMSwxNTY0OSAyMTMxLDExNTg1IDYxOTUsMTE1ODUgNjE5NSwxNTY0OSA0MTYzLDE1NjQ5IFoiLz4mI3hhOyAgICAgICAgPHRleHQgY2xhc3M9IlRleHRTaGFwZSI+PHRzcGFuIGNsYXNzPSJUZXh0UGFyYWdyYXBoIiBmb250LWZhbWlseT0iTGliZXJhdGlvbiBTYW5zLCBzYW5zLXNlcmlmIiBmb250LXNpemU9IjYzNXB4IiBmb250LXdlaWdodD0iNDAwIj48dHNwYW4gY2xhc3M9IlRleHRQb3NpdGlvbiIgeD0iMzg0NiIgeT0iMTMxMjciPjx0c3BhbiBmaWxsPSJyZ2IoMCwwLDApIiBzdHJva2U9Im5vbmUiPkNJPC90c3Bhbj48L3RzcGFuPjwvdHNwYW4+PHRzcGFuIGNsYXNzPSJUZXh0UGFyYWdyYXBoIiBmb250LWZhbWlseT0iTGliZXJhdGlvbiBTYW5zLCBzYW5zLXNlcmlmIiBmb250LXNpemU9IjYzNXB4IiBmb250LXdlaWdodD0iNDAwIj48dHNwYW4gY2xhc3M9IlRleHRQb3NpdGlvbiIgeD0iMzA5MCIgeT0iMTM4MzgiPjx0c3BhbiBmaWxsPSJyZ2IoMCwwLDApIiBzdHJva2U9Im5vbmUiPkplbmtpbnM8L3RzcGFuPjwvdHNwYW4+PC90c3Bhbj48dHNwYW4gY2xhc3M9IlRleHRQYXJhZ3JhcGgiIGZvbnQtZmFtaWx5PSJMaWJlcmF0aW9uIFNhbnMsIHNhbnMtc2VyaWYiIGZvbnQtc2l6ZT0iNjM1cHgiIGZvbnQtd2VpZ2h0PSI0MDAiPjx0c3BhbiBjbGFzcz0iVGV4dFBvc2l0aW9uIiB4PSIyNjUwIiB5PSIxNDU0OSI+PHRzcGFuIGZpbGw9InJnYigwLDAsMCkiIHN0cm9rZT0ibm9uZSI+c2J0LWplbmtpbnM8L3RzcGFuPjwvdHNwYW4+PC90c3Bhbj48L3RleHQ+JiN4YTsgICAgICAgPC9nPiYjeGE7ICAgICAgPC9nPiYjeGE7ICAgICAgPGcgY2xhc3M9ImNvbS5zdW4uc3Rhci5kcmF3aW5nLkN1c3RvbVNoYXBlIj4mI3hhOyAgICAgICA8ZyBpZD0iaWQ1Ij4mI3hhOyAgICAgICAgPHJlY3QgY2xhc3M9IkJvdW5kaW5nQm94IiBzdHJva2U9Im5vbmUiIGZpbGw9Im5vbmUiIHg9IjIyNjYiIHk9IjE3ODY0IiB3aWR0aD0iMzgxMyIgaGVpZ2h0PSIzODEzIi8+JiN4YTsgICAgICAgIDxwYXRoIGZpbGw9InJnYigxMTksMTM2LDE1MykiIHN0cm9rZT0ibm9uZSIgZD0iTSA0MTcyLDIxNjc1IEwgMjI2NywyMTY3NSAyMjY3LDE3ODY1IDYwNzcsMTc4NjUgNjA3NywyMTY3NSA0MTcyLDIxNjc1IFoiLz4mI3hhOyAgICAgICAgPHBhdGggZmlsbD0ibm9uZSIgc3Ryb2tlPSJyZ2IoMCwxMjgsMCkiIGQ9Ik0gNDE3MiwyMTY3NSBMIDIyNjcsMjE2NzUgMjI2NywxNzg2NSA2MDc3LDE3ODY1IDYwNzcsMjE2NzUgNDE3MiwyMTY3NSBaIi8+JiN4YTsgICAgICAgIDx0ZXh0IGNsYXNzPSJUZXh0U2hhcGUiPjx0c3BhbiBjbGFzcz0iVGV4dFBhcmFncmFwaCIgZm9udC1mYW1pbHk9IkxpYmVyYXRpb24gU2Fucywgc2Fucy1zZXJpZiIgZm9udC1zaXplPSI2MzVweCIgZm9udC13ZWlnaHQ9IjQwMCI+PHRzcGFuIGNsYXNzPSJUZXh0UG9zaXRpb24iIHg9IjM4NTUiIHk9IjE5MjgwIj48dHNwYW4gZmlsbD0icmdiKDAsMCwwKSIgc3Ryb2tlPSJub25lIj5DSTwvdHNwYW4+PC90c3Bhbj48L3RzcGFuPjx0c3BhbiBjbGFzcz0iVGV4dFBhcmFncmFwaCIgZm9udC1mYW1pbHk9IkxpYmVyYXRpb24gU2Fucywgc2Fucy1zZXJpZiIgZm9udC1zaXplPSI2MzVweCIgZm9udC13ZWlnaHQ9IjQwMCI+PHRzcGFuIGNsYXNzPSJUZXh0UG9zaXRpb24iIHg9IjMyNzUiIHk9IjE5OTkxIj48dHNwYW4gZmlsbD0icmdiKDAsMCwwKSIgc3Ryb2tlPSJub25lIj5OZXh1czwvdHNwYW4+PC90c3Bhbj48L3RzcGFuPjx0c3BhbiBjbGFzcz0iVGV4dFBhcmFncmFwaCIgZm9udC1mYW1pbHk9IkxpYmVyYXRpb24gU2Fucywgc2Fucy1zZXJpZiIgZm9udC1zaXplPSI2MzVweCIgZm9udC13ZWlnaHQ9IjQwMCI+PHRzcGFuIGNsYXNzPSJUZXh0UG9zaXRpb24iIHg9IjI1MzYiIHk9IjIwNzAyIj48dHNwYW4gZmlsbD0icmdiKDAsMCwwKSIgc3Ryb2tlPSJub25lIj5uZXh1czo4MDk5PC90c3Bhbj48L3RzcGFuPjwvdHNwYW4+PC90ZXh0PiYjeGE7ICAgICAgIDwvZz4mI3hhOyAgICAgIDwvZz4mI3hhOyAgICAgIDxnIGNsYXNzPSJjb20uc3VuLnN0YXIuZHJhd2luZy5DdXN0b21TaGFwZSI+JiN4YTsgICAgICAgPGcgaWQ9ImlkNiI+JiN4YTsgICAgICAgIDxyZWN0IGNsYXNzPSJCb3VuZGluZ0JveCIgc3Ryb2tlPSJub25lIiBmaWxsPSJub25lIiB4PSIzNjY2IiB5PSIyMzMwNiIgd2lkdGg9IjUwODMiIGhlaWdodD0iMzMwNSIvPiYjeGE7ICAgICAgICA8cGF0aCBmaWxsPSJyZ2IoMjA1LDkyLDkyKSIgc3Ryb2tlPSJub25lIiBkPSJNIDYyMDcsMjY2MDkgTCAzNjY3LDI2NjA5IDM2NjcsMjMzMDcgODc0NywyMzMwNyA4NzQ3LDI2NjA5IDYyMDcsMjY2MDkgWiIvPiYjeGE7ICAgICAgICA8cGF0aCBmaWxsPSJub25lIiBzdHJva2U9InJnYigwLDEyOCwwKSIgZD0iTSA2MjA3LDI2NjA5IEwgMzY2NywyNjYwOSAzNjY3LDIzMzA3IDg3NDcsMjMzMDcgODc0NywyNjYwOSA2MjA3LDI2NjA5IFoiLz4mI3hhOyAgICAgICAgPHRleHQgY2xhc3M9IlRleHRTaGFwZSI+PHRzcGFuIGNsYXNzPSJUZXh0UGFyYWdyYXBoIiBmb250LWZhbWlseT0iTGliZXJhdGlvbiBTYW5zLCBzYW5zLXNlcmlmIiBmb250LXNpemU9IjYzNXB4IiBmb250LXdlaWdodD0iNDAwIj48dHNwYW4gY2xhc3M9IlRleHRQb3NpdGlvbiIgeD0iNTU1NSIgeT0iMjQ0NjgiPjx0c3BhbiBmaWxsPSJyZ2IoMCwwLDApIiBzdHJva2U9Im5vbmUiPkRFVjwvdHNwYW4+PC90c3Bhbj48L3RzcGFuPjx0c3BhbiBjbGFzcz0iVGV4dFBhcmFncmFwaCIgZm9udC1mYW1pbHk9IkxpYmVyYXRpb24gU2Fucywgc2Fucy1zZXJpZiIgZm9udC1zaXplPSI2MzVweCIgZm9udC13ZWlnaHQ9IjQwMCI+PHRzcGFuIGNsYXNzPSJUZXh0UG9zaXRpb24iIHg9IjQ3OTgiIHk9IjI1MTc5Ij48dHNwYW4gZmlsbD0icmdiKDAsMCwwKSIgc3Ryb2tlPSJub25lIj5PcGVuU2hpZnQ8L3RzcGFuPjwvdHNwYW4+PC90c3Bhbj48dHNwYW4gY2xhc3M9IlRleHRQYXJhZ3JhcGgiIGZvbnQtZmFtaWx5PSJMaWJlcmF0aW9uIFNhbnMsIHNhbnMtc2VyaWYiIGZvbnQtc2l6ZT0iNjM1cHgiIGZvbnQtd2VpZ2h0PSI0MDAiPjx0c3BhbiBjbGFzcz0iVGV4dFBvc2l0aW9uIiB4PSI1MDY0IiB5PSIyNTg5MCI+PHRzcGFuIGZpbGw9InJnYigwLDAsMCkiIHN0cm9rZT0ibm9uZSI+ZGV2LWdlbjwvdHNwYW4+PC90c3Bhbj48L3RzcGFuPjwvdGV4dD4mI3hhOyAgICAgICA8L2c+JiN4YTsgICAgICA8L2c+JiN4YTsgICAgICA8ZyBjbGFzcz0iY29tLnN1bi5zdGFyLmRyYXdpbmcuQ3VzdG9tU2hhcGUiPiYjeGE7ICAgICAgIDxnIGlkPSJpZDciPiYjeGE7ICAgICAgICA8cmVjdCBjbGFzcz0iQm91bmRpbmdCb3giIHN0cm9rZT0ibm9uZSIgZmlsbD0ibm9uZSIgeD0iODg3MiIgeT0iMjcxNSIgd2lkdGg9IjQwNjciIGhlaWdodD0iNTA4MyIvPiYjeGE7ICAgICAgICA8cGF0aCBmaWxsPSJyZ2IoMzAsMTQ0LDI1NSkiIHN0cm9rZT0ibm9uZSIgZD0iTSAxMDkwNSw3Nzk2IEwgODg3Myw3Nzk2IDg4NzMsMjcxNiAxMjkzNywyNzE2IDEyOTM3LDc3OTYgMTA5MDUsNzc5NiBaIi8+JiN4YTsgICAgICAgIDxwYXRoIGZpbGw9Im5vbmUiIHN0cm9rZT0icmdiKDAsMTI4LDApIiBkPSJNIDEwOTA1LDc3OTYgTCA4ODczLDc3OTYgODg3MywyNzE2IDEyOTM3LDI3MTYgMTI5MzcsNzc5NiAxMDkwNSw3Nzk2IFoiLz4mI3hhOyAgICAgICAgPHRleHQgY2xhc3M9IlRleHRTaGFwZSI+PHRzcGFuIGNsYXNzPSJUZXh0UGFyYWdyYXBoIiBmb250LWZhbWlseT0iTGliZXJhdGlvbiBTYW5zLCBzYW5zLXNlcmlmIiBmb250LXNpemU9IjYzNXB4IiBmb250LXdlaWdodD0iNDAwIj48dHNwYW4gY2xhc3M9IlRleHRQb3NpdGlvbiIgeD0iMTAyNzIiIHk9IjQ3NjYiPjx0c3BhbiBmaWxsPSJyZ2IoMCwwLDApIiBzdHJva2U9Im5vbmUiPkNETDwvdHNwYW4+PC90c3Bhbj48L3RzcGFuPjx0c3BhbiBjbGFzcz0iVGV4dFBhcmFncmFwaCIgZm9udC1mYW1pbHk9IkxpYmVyYXRpb24gU2Fucywgc2Fucy1zZXJpZiIgZm9udC1zaXplPSI2MzVweCIgZm9udC13ZWlnaHQ9IjQwMCI+PHRzcGFuIGNsYXNzPSJUZXh0UG9zaXRpb24iIHg9Ijk1NjUiIHk9IjU0NzciPjx0c3BhbiBmaWxsPSJyZ2IoMCwwLDApIiBzdHJva2U9Im5vbmUiPkJpdEJ1Y2tldDwvdHNwYW4+PC90c3Bhbj48L3RzcGFuPjx0c3BhbiBjbGFzcz0iVGV4dFBhcmFncmFwaCIgZm9udC1mYW1pbHk9IkxpYmVyYXRpb24gU2Fucywgc2Fucy1zZXJpZiIgZm9udC1zaXplPSI2MzVweCIgZm9udC13ZWlnaHQ9IjQwMCI+PHRzcGFuIGNsYXNzPSJUZXh0UG9zaXRpb24iIHg9IjkwMDIiIHk9IjYxODgiPjx0c3BhbiBmaWxsPSJyZ2IoMCwwLDApIiBzdHJva2U9Im5vbmUiPnNicmYtYml0YnVja2V0PC90c3Bhbj48L3RzcGFuPjwvdHNwYW4+PC90ZXh0PiYjeGE7ICAgICAgIDwvZz4mI3hhOyAgICAgIDwvZz4mI3hhOyAgICAgIDxnIGNsYXNzPSJjb20uc3VuLnN0YXIuZHJhd2luZy5DdXN0b21TaGFwZSI+JiN4YTsgICAgICAgPGcgaWQ9ImlkOCI+JiN4YTsgICAgICAgIDxyZWN0IGNsYXNzPSJCb3VuZGluZ0JveCIgc3Ryb2tlPSJub25lIiBmaWxsPSJub25lIiB4PSIxNTQ3MiIgeT0iNzg1NyIgd2lkdGg9IjQwNjciIGhlaWdodD0iNDA2NyIvPiYjeGE7ICAgICAgICA8cGF0aCBmaWxsPSJyZ2IoMjQ1LDIyMiwxNzkpIiBzdHJva2U9Im5vbmUiIGQ9Ik0gMTc1MDUsMTE5MjIgTCAxNTQ3MywxMTkyMiAxNTQ3Myw3ODU4IDE5NTM3LDc4NTggMTk1MzcsMTE5MjIgMTc1MDUsMTE5MjIgWiIvPiYjeGE7ICAgICAgICA8cGF0aCBmaWxsPSJub25lIiBzdHJva2U9InJnYigwLDEyOCwwKSIgZD0iTSAxNzUwNSwxMTkyMiBMIDE1NDczLDExOTIyIDE1NDczLDc4NTggMTk1MzcsNzg1OCAxOTUzNywxMTkyMiAxNzUwNSwxMTkyMiBaIi8+JiN4YTsgICAgICAgIDx0ZXh0IGNsYXNzPSJUZXh0U2hhcGUiPjx0c3BhbiBjbGFzcz0iVGV4dFBhcmFncmFwaCIgZm9udC1mYW1pbHk9IkxpYmVyYXRpb24gU2Fucywgc2Fucy1zZXJpZiIgZm9udC1zaXplPSI2MzVweCIgZm9udC13ZWlnaHQ9IjQwMCI+PHRzcGFuIGNsYXNzPSJUZXh0UG9zaXRpb24iIHg9IjE2ODcyIiB5PSI5NDAwIj48dHNwYW4gZmlsbD0icmdiKDAsMCwwKSIgc3Ryb2tlPSJub25lIj5DREw8L3RzcGFuPjwvdHNwYW4+PC90c3Bhbj48dHNwYW4gY2xhc3M9IlRleHRQYXJhZ3JhcGgiIGZvbnQtZmFtaWx5PSJMaWJlcmF0aW9uIFNhbnMsIHNhbnMtc2VyaWYiIGZvbnQtc2l6ZT0iNjM1cHgiIGZvbnQtd2VpZ2h0PSI0MDAiPjx0c3BhbiBjbGFzcz0iVGV4dFBvc2l0aW9uIiB4PSIxNjQzMiIgeT0iMTAxMTEiPjx0c3BhbiBmaWxsPSJyZ2IoMCwwLDApIiBzdHJva2U9Im5vbmUiPkplbmtpbnM8L3RzcGFuPjwvdHNwYW4+PC90c3Bhbj48dHNwYW4gY2xhc3M9IlRleHRQYXJhZ3JhcGgiIGZvbnQtZmFtaWx5PSJMaWJlcmF0aW9uIFNhbnMsIHNhbnMtc2VyaWYiIGZvbnQtc2l6ZT0iNjM1cHgiIGZvbnQtd2VpZ2h0PSI0MDAiPjx0c3BhbiBjbGFzcz0iVGV4dFBvc2l0aW9uIiB4PSIxNTUzNCIgeT0iMTA4MjIiPjx0c3BhbiBmaWxsPSJyZ2IoMCwwLDApIiBzdHJva2U9Im5vbmUiPnNidC1xYS1qZW5raW5zPC90c3Bhbj48L3RzcGFuPjwvdHNwYW4+PC90ZXh0PiYjeGE7ICAgICAgIDwvZz4mI3hhOyAgICAgIDwvZz4mI3hhOyAgICAgIDxnIGNsYXNzPSJjb20uc3VuLnN0YXIuZHJhd2luZy5DdXN0b21TaGFwZSI+JiN4YTsgICAgICAgPGcgaWQ9ImlkOSI+JiN4YTsgICAgICAgIDxyZWN0IGNsYXNzPSJCb3VuZGluZ0JveCIgc3Ryb2tlPSJub25lIiBmaWxsPSJub25lIiB4PSIxNTQ3MiIgeT0iMTI5MzciIHdpZHRoPSIzODEzIiBoZWlnaHQ9IjM4MTMiLz4mI3hhOyAgICAgICAgPHBhdGggZmlsbD0icmdiKDExOSwxMzYsMTUzKSIgc3Ryb2tlPSJub25lIiBkPSJNIDE3Mzc4LDE2NzQ4IEwgMTU0NzMsMTY3NDggMTU0NzMsMTI5MzggMTkyODMsMTI5MzggMTkyODMsMTY3NDggMTczNzgsMTY3NDggWiIvPiYjeGE7ICAgICAgICA8cGF0aCBmaWxsPSJub25lIiBzdHJva2U9InJnYigwLDEyOCwwKSIgZD0iTSAxNzM3OCwxNjc0OCBMIDE1NDczLDE2NzQ4IDE1NDczLDEyOTM4IDE5MjgzLDEyOTM4IDE5MjgzLDE2NzQ4IDE3Mzc4LDE2NzQ4IFoiLz4mI3hhOyAgICAgICAgPHRleHQgY2xhc3M9IlRleHRTaGFwZSI+PHRzcGFuIGNsYXNzPSJUZXh0UGFyYWdyYXBoIiBmb250LWZhbWlseT0iTGliZXJhdGlvbiBTYW5zLCBzYW5zLXNlcmlmIiBmb250LXNpemU9IjYzNXB4IiBmb250LXdlaWdodD0iNDAwIj48dHNwYW4gY2xhc3M9IlRleHRQb3NpdGlvbiIgeD0iMTY3NDUiIHk9IjE0MzUzIj48dHNwYW4gZmlsbD0icmdiKDAsMCwwKSIgc3Ryb2tlPSJub25lIj5DREw8L3RzcGFuPjwvdHNwYW4+PC90c3Bhbj48dHNwYW4gY2xhc3M9IlRleHRQYXJhZ3JhcGgiIGZvbnQtZmFtaWx5PSJMaWJlcmF0aW9uIFNhbnMsIHNhbnMtc2VyaWYiIGZvbnQtc2l6ZT0iNjM1cHgiIGZvbnQtd2VpZ2h0PSI0MDAiPjx0c3BhbiBjbGFzcz0iVGV4dFBvc2l0aW9uIiB4PSIxNjQ4MSIgeT0iMTUwNjQiPjx0c3BhbiBmaWxsPSJyZ2IoMCwwLDApIiBzdHJva2U9Im5vbmUiPk5leHVzPC90c3Bhbj48L3RzcGFuPjwvdHNwYW4+PHRzcGFuIGNsYXNzPSJUZXh0UGFyYWdyYXBoIiBmb250LWZhbWlseT0iTGliZXJhdGlvbiBTYW5zLCBzYW5zLXNlcmlmIiBmb250LXNpemU9IjYzNXB4IiBmb250LXdlaWdodD0iNDAwIj48dHNwYW4gY2xhc3M9IlRleHRQb3NpdGlvbiIgeD0iMTU4OTkiIHk9IjE1Nzc1Ij48dHNwYW4gZmlsbD0icmdiKDAsMCwwKSIgc3Ryb2tlPSJub25lIj5zYnJmLW5leHVzPC90c3Bhbj48L3RzcGFuPjwvdHNwYW4+PC90ZXh0PiYjeGE7ICAgICAgIDwvZz4mI3hhOyAgICAgIDwvZz4mI3hhOyAgICAgIDxnIGNsYXNzPSJjb20uc3VuLnN0YXIuZHJhd2luZy5DdXN0b21TaGFwZSI+JiN4YTsgICAgICAgPGcgaWQ9ImlkMTAiPiYjeGE7ICAgICAgICA8cmVjdCBjbGFzcz0iQm91bmRpbmdCb3giIHN0cm9rZT0ibm9uZSIgZmlsbD0ibm9uZSIgeD0iMTU0NzIiIHk9IjE4Nzc5IiB3aWR0aD0iNTA4MyIgaGVpZ2h0PSIzMzA1Ii8+JiN4YTsgICAgICAgIDxwYXRoIGZpbGw9InJnYigyMDUsOTIsOTIpIiBzdHJva2U9Im5vbmUiIGQ9Ik0gMTgwMTMsMjIwODIgTCAxNTQ3MywyMjA4MiAxNTQ3MywxODc4MCAyMDU1MywxODc4MCAyMDU1MywyMjA4MiAxODAxMywyMjA4MiBaIi8+JiN4YTsgICAgICAgIDxwYXRoIGZpbGw9Im5vbmUiIHN0cm9rZT0icmdiKDAsMTI4LDApIiBkPSJNIDE4MDEzLDIyMDgyIEwgMTU0NzMsMjIwODIgMTU0NzMsMTg3ODAgMjA1NTMsMTg3ODAgMjA1NTMsMjIwODIgMTgwMTMsMjIwODIgWiIvPiYjeGE7ICAgICAgICA8dGV4dCBjbGFzcz0iVGV4dFNoYXBlIj48dHNwYW4gY2xhc3M9IlRleHRQYXJhZ3JhcGgiIGZvbnQtZmFtaWx5PSJMaWJlcmF0aW9uIFNhbnMsIHNhbnMtc2VyaWYiIGZvbnQtc2l6ZT0iNjM1cHgiIGZvbnQtd2VpZ2h0PSI0MDAiPjx0c3BhbiBjbGFzcz0iVGV4dFBvc2l0aW9uIiB4PSIxNzM2NiIgeT0iMTk5NDEiPjx0c3BhbiBmaWxsPSJyZ2IoMCwwLDApIiBzdHJva2U9Im5vbmUiPtCY0KTQojwvdHNwYW4+PC90c3Bhbj48L3RzcGFuPjx0c3BhbiBjbGFzcz0iVGV4dFBhcmFncmFwaCIgZm9udC1mYW1pbHk9IkxpYmVyYXRpb24gU2Fucywgc2Fucy1zZXJpZiIgZm9udC1zaXplPSI2MzVweCIgZm9udC13ZWlnaHQ9IjQwMCI+PHRzcGFuIGNsYXNzPSJUZXh0UG9zaXRpb24iIHg9IjE2NjA0IiB5PSIyMDY1MiI+PHRzcGFuIGZpbGw9InJnYigwLDAsMCkiIHN0cm9rZT0ibm9uZSI+T3BlblNoaWZ0PC90c3Bhbj48L3RzcGFuPjwvdHNwYW4+PHRzcGFuIGNsYXNzPSJUZXh0UGFyYWdyYXBoIiBmb250LWZhbWlseT0iTGliZXJhdGlvbiBTYW5zLCBzYW5zLXNlcmlmIiBmb250LXNpemU9IjYzNXB4IiBmb250LXdlaWdodD0iNDAwIj48dHNwYW4gY2xhc3M9IlRleHRQb3NpdGlvbiIgeD0iMTY2OTUiIHk9IjIxMzYzIj48dHNwYW4gZmlsbD0icmdiKDAsMCwwKSIgc3Ryb2tlPSJub25lIj5kZXYtZ2VuMjwvdHNwYW4+PC90c3Bhbj48L3RzcGFuPjwvdGV4dD4mI3hhOyAgICAgICA8L2c+JiN4YTsgICAgICA8L2c+JiN4YTsgICAgICA8ZyBjbGFzcz0iY29tLnN1bi5zdGFyLmRyYXdpbmcuVGV4dFNoYXBlIj4mI3hhOyAgICAgICA8ZyBpZD0iaWQxMSI+JiN4YTsgICAgICAgIDxyZWN0IGNsYXNzPSJCb3VuZGluZ0JveCIgc3Ryb2tlPSJub25lIiBmaWxsPSJub25lIiB4PSIyMTU3NCIgeT0iMTI1NCIgd2lkdGg9IjE4Mjg5IiBoZWlnaHQ9IjMwNDkiLz4mI3hhOyAgICAgICAgPHRleHQgY2xhc3M9IlRleHRTaGFwZSI+PHRzcGFuIGNsYXNzPSJUZXh0UGFyYWdyYXBoIiBmb250LWZhbWlseT0iTGliZXJhdGlvbiBTYW5zLCBzYW5zLXNlcmlmIiBmb250LXNpemU9IjYzNXB4IiBmb250LXdlaWdodD0iNDAwIj48dHNwYW4gY2xhc3M9IlRleHRQb3NpdGlvbiIgeD0iMjE4MjQiIHk9IjE5NTUiPjx0c3BhbiBmaWxsPSJyZ2IoMCwwLDApIiBzdHJva2U9Im5vbmUiPmh0dHBzOi8ve0FDfS5zaWdtYS5zYnJmLnJ1PC90c3Bhbj48L3RzcGFuPjwvdHNwYW4+PHRzcGFuIGNsYXNzPSJUZXh0UGFyYWdyYXBoIiBmb250LWZhbWlseT0iTGliZXJhdGlvbiBTYW5zLCBzYW5zLXNlcmlmIiBmb250LXNpemU9IjYzNXB4IiBmb250LXdlaWdodD0iNDAwIj48dHNwYW4gY2xhc3M9IlRleHRQb3NpdGlvbiIgeD0iMjE4MjQiIHk9IjI2NjYiPjx0c3BhbiBmaWxsPSJyZ2IoMCwwLDApIiBzdHJva2U9Im5vbmUiPmh0dHBzOi8vY29uc29sZS1vcGVuc2hpZnQtY29uc29sZS5hcHBzLntPU30uc2lnbWEuc2JyZi5ydTwvdHNwYW4+PC90c3Bhbj48L3RzcGFuPjwvdGV4dD4mI3hhOyAgICAgICA8L2c+JiN4YTsgICAgICA8L2c+JiN4YTsgICAgICA8ZyBjbGFzcz0iY29tLnN1bi5zdGFyLmRyYXdpbmcuQ3VzdG9tU2hhcGUiPiYjeGE7ICAgICAgIDxnIGlkPSJpZDEyIj4mI3hhOyAgICAgICAgPHJlY3QgY2xhc3M9IkJvdW5kaW5nQm94IiBzdHJva2U9Im5vbmUiIGZpbGw9Im5vbmUiIHg9IjMxMzM0IiB5PSI3ODU3IiB3aWR0aD0iNDA2NyIgaGVpZ2h0PSI0MDY3Ii8+JiN4YTsgICAgICAgIDxwYXRoIGZpbGw9InJnYigyNDUsMjIyLDE3OSkiIHN0cm9rZT0ibm9uZSIgZD0iTSAzMzM2NywxMTkyMiBMIDMxMzM1LDExOTIyIDMxMzM1LDc4NTggMzUzOTksNzg1OCAzNTM5OSwxMTkyMiAzMzM2NywxMTkyMiBaIi8+JiN4YTsgICAgICAgIDxwYXRoIGZpbGw9Im5vbmUiIHN0cm9rZT0icmdiKDUyLDEwMSwxNjQpIiBkPSJNIDMzMzY3LDExOTIyIEwgMzEzMzUsMTE5MjIgMzEzMzUsNzg1OCAzNTM5OSw3ODU4IDM1Mzk5LDExOTIyIDMzMzY3LDExOTIyIFoiLz4mI3hhOyAgICAgICAgPHRleHQgY2xhc3M9IlRleHRTaGFwZSI+PHRzcGFuIGNsYXNzPSJUZXh0UGFyYWdyYXBoIiBmb250LWZhbWlseT0iTGliZXJhdGlvbiBTYW5zLCBzYW5zLXNlcmlmIiBmb250LXNpemU9IjYzNXB4IiBmb250LXdlaWdodD0iNDAwIj48dHNwYW4gY2xhc3M9IlRleHRQb3NpdGlvbiIgeD0iMzI2OTgiIHk9Ijk0MDAiPjx0c3BhbiBmaWxsPSJyZ2IoMCwwLDApIiBzdHJva2U9Im5vbmUiPkNEUDwvdHNwYW4+PC90c3Bhbj48L3RzcGFuPjx0c3BhbiBjbGFzcz0iVGV4dFBhcmFncmFwaCIgZm9udC1mYW1pbHk9IkxpYmVyYXRpb24gU2Fucywgc2Fucy1zZXJpZiIgZm9udC1zaXplPSI2MzVweCIgZm9udC13ZWlnaHQ9IjQwMCI+PHRzcGFuIGNsYXNzPSJUZXh0UG9zaXRpb24iIHg9IjMyMjk0IiB5PSIxMDExMSI+PHRzcGFuIGZpbGw9InJnYigwLDAsMCkiIHN0cm9rZT0ibm9uZSI+SmVua2luczwvdHNwYW4+PC90c3Bhbj48L3RzcGFuPjx0c3BhbiBjbGFzcz0iVGV4dFBhcmFncmFwaCIgZm9udC1mYW1pbHk9IkxpYmVyYXRpb24gU2Fucywgc2Fucy1zZXJpZiIgZm9udC1zaXplPSI2MzVweCIgZm9udC13ZWlnaHQ9IjQwMCI+PHRzcGFuIGNsYXNzPSJUZXh0UG9zaXRpb24iIHg9IjMxODU2IiB5PSIxMDgyMiI+PHRzcGFuIGZpbGw9InJnYigwLDAsMCkiIHN0cm9rZT0ibm9uZSI+bmxiLWplbmtpbnM8L3RzcGFuPjwvdHNwYW4+PC90c3Bhbj48L3RleHQ+JiN4YTsgICAgICAgPC9nPiYjeGE7ICAgICAgPC9nPiYjeGE7ICAgICAgPGcgY2xhc3M9ImNvbS5zdW4uc3Rhci5kcmF3aW5nLkN1c3RvbVNoYXBlIj4mI3hhOyAgICAgICA8ZyBpZD0iaWQxMyI+JiN4YTsgICAgICAgIDxyZWN0IGNsYXNzPSJCb3VuZGluZ0JveCIgc3Ryb2tlPSJub25lIiBmaWxsPSJub25lIiB4PSIyMjEzNCIgeT0iNzk4NCIgd2lkdGg9IjQwNjciIGhlaWdodD0iNDA2NyIvPiYjeGE7ICAgICAgICA8cGF0aCBmaWxsPSJyZ2IoMjQ1LDIyMiwxNzkpIiBzdHJva2U9Im5vbmUiIGQ9Ik0gMjQxNjcsMTIwNDkgTCAyMjEzNSwxMjA0OSAyMjEzNSw3OTg1IDI2MTk5LDc5ODUgMjYxOTksMTIwNDkgMjQxNjcsMTIwNDkgWiIvPiYjeGE7ICAgICAgICA8cGF0aCBmaWxsPSJub25lIiBzdHJva2U9InJnYig1MiwxMDEsMTY0KSIgZD0iTSAyNDE2NywxMjA0OSBMIDIyMTM1LDEyMDQ5IDIyMTM1LDc5ODUgMjYxOTksNzk4NSAyNjE5OSwxMjA0OSAyNDE2NywxMjA0OSBaIi8+JiN4YTsgICAgICAgIDx0ZXh0IGNsYXNzPSJUZXh0U2hhcGUiPjx0c3BhbiBjbGFzcz0iVGV4dFBhcmFncmFwaCIgZm9udC1mYW1pbHk9IkxpYmVyYXRpb24gU2Fucywgc2Fucy1zZXJpZiIgZm9udC1zaXplPSI2MzVweCIgZm9udC13ZWlnaHQ9IjQwMCI+PHRzcGFuIGNsYXNzPSJUZXh0UG9zaXRpb24iIHg9IjIzNDk4IiB5PSI5NTI3Ij48dHNwYW4gZmlsbD0icmdiKDAsMCwwKSIgc3Ryb2tlPSJub25lIj5DRFA8L3RzcGFuPjwvdHNwYW4+PC90c3Bhbj48dHNwYW4gY2xhc3M9IlRleHRQYXJhZ3JhcGgiIGZvbnQtZmFtaWx5PSJMaWJlcmF0aW9uIFNhbnMsIHNhbnMtc2VyaWYiIGZvbnQtc2l6ZT0iNjM1cHgiIGZvbnQtd2VpZ2h0PSI0MDAiPjx0c3BhbiBjbGFzcz0iVGV4dFBvc2l0aW9uIiB4PSIyMzA5NCIgeT0iMTAyMzgiPjx0c3BhbiBmaWxsPSJyZ2IoMCwwLDApIiBzdHJva2U9Im5vbmUiPkplbmtpbnM8L3RzcGFuPjwvdHNwYW4+PC90c3Bhbj48dHNwYW4gY2xhc3M9IlRleHRQYXJhZ3JhcGgiIGZvbnQtZmFtaWx5PSJMaWJlcmF0aW9uIFNhbnMsIHNhbnMtc2VyaWYiIGZvbnQtc2l6ZT0iNjM1cHgiIGZvbnQtd2VpZ2h0PSI0MDAiPjx0c3BhbiBjbGFzcz0iVGV4dFBvc2l0aW9uIiB4PSIyMjE0NSIgeT0iMTA5NDkiPjx0c3BhbiBmaWxsPSJyZ2IoMCwwLDApIiBzdHJva2U9Im5vbmUiPm5sYi1qZW5raW5zLXBzaTwvdHNwYW4+PC90c3Bhbj48L3RzcGFuPjwvdGV4dD4mI3hhOyAgICAgICA8L2c+JiN4YTsgICAgICA8L2c+JiN4YTsgICAgICA8ZyBjbGFzcz0iY29tLnN1bi5zdGFyLmRyYXdpbmcuQ3VzdG9tU2hhcGUiPiYjeGE7ICAgICAgIDxnIGlkPSJpZDE0Ij4mI3hhOyAgICAgICAgPHJlY3QgY2xhc3M9IkJvdW5kaW5nQm94IiBzdHJva2U9Im5vbmUiIGZpbGw9Im5vbmUiIHg9IjIyMTM0IiB5PSIxODc3OSIgd2lkdGg9IjUwODMiIGhlaWdodD0iMzMwNSIvPiYjeGE7ICAgICAgICA8cGF0aCBmaWxsPSJyZ2IoMjA1LDkyLDkyKSIgc3Ryb2tlPSJub25lIiBkPSJNIDI0Njc1LDIyMDgyIEwgMjIxMzUsMjIwODIgMjIxMzUsMTg3ODAgMjcyMTUsMTg3ODAgMjcyMTUsMjIwODIgMjQ2NzUsMjIwODIgWiIvPiYjeGE7ICAgICAgICA8cGF0aCBmaWxsPSJub25lIiBzdHJva2U9InJnYigwLDEyOCwwKSIgZD0iTSAyNDY3NSwyMjA4MiBMIDIyMTM1LDIyMDgyIDIyMTM1LDE4NzgwIDI3MjE1LDE4NzgwIDI3MjE1LDIyMDgyIDI0Njc1LDIyMDgyIFoiLz4mI3hhOyAgICAgICAgPHRleHQgY2xhc3M9IlRleHRTaGFwZSI+PHRzcGFuIGNsYXNzPSJUZXh0UGFyYWdyYXBoIiBmb250LWZhbWlseT0iTGliZXJhdGlvbiBTYW5zLCBzYW5zLXNlcmlmIiBmb250LXNpemU9IjYzNXB4IiBmb250LXdlaWdodD0iNDAwIj48dHNwYW4gY2xhc3M9IlRleHRQb3NpdGlvbiIgeD0iMjM5ODkiIHk9IjE5OTQxIj48dHNwYW4gZmlsbD0icmdiKDAsMCwwKSIgc3Ryb2tlPSJub25lIj7Qn9Ch0Jg8L3RzcGFuPjwvdHNwYW4+PC90c3Bhbj48dHNwYW4gY2xhc3M9IlRleHRQYXJhZ3JhcGgiIGZvbnQtZmFtaWx5PSJMaWJlcmF0aW9uIFNhbnMsIHNhbnMtc2VyaWYiIGZvbnQtc2l6ZT0iNjM1cHgiIGZvbnQtd2VpZ2h0PSI0MDAiPjx0c3BhbiBjbGFzcz0iVGV4dFBvc2l0aW9uIiB4PSIyMzI2NiIgeT0iMjA2NTIiPjx0c3BhbiBmaWxsPSJyZ2IoMCwwLDApIiBzdHJva2U9Im5vbmUiPk9wZW5TaGlmdDwvdHNwYW4+PC90c3Bhbj48L3RzcGFuPjx0c3BhbiBjbGFzcz0iVGV4dFBhcmFncmFwaCIgZm9udC1mYW1pbHk9IkxpYmVyYXRpb24gU2Fucywgc2Fucy1zZXJpZiIgZm9udC1zaXplPSI2MzVweCIgZm9udC13ZWlnaHQ9IjQwMCI+PHRzcGFuIGNsYXNzPSJUZXh0UG9zaXRpb24iIHg9IjIzNjM4IiB5PSIyMTM2MyI+PHRzcGFuIGZpbGw9InJnYigwLDAsMCkiIHN0cm9rZT0ibm9uZSI+cHNpLWdlbjwvdHNwYW4+PC90c3Bhbj48L3RzcGFuPjwvdGV4dD4mI3hhOyAgICAgICA8L2c+JiN4YTsgICAgICA8L2c+JiN4YTsgICAgICA8ZyBjbGFzcz0iY29tLnN1bi5zdGFyLmRyYXdpbmcuQ3VzdG9tU2hhcGUiPiYjeGE7ICAgICAgIDxnIGlkPSJpZDE1Ij4mI3hhOyAgICAgICAgPHJlY3QgY2xhc3M9IkJvdW5kaW5nQm94IiBzdHJva2U9Im5vbmUiIGZpbGw9Im5vbmUiIHg9IjIyMTM0IiB5PSIyMjk3OSIgd2lkdGg9IjUwODMiIGhlaWdodD0iMzMwNSIvPiYjeGE7ICAgICAgICA8cGF0aCBmaWxsPSJyZ2IoMjA1LDkyLDkyKSIgc3Ryb2tlPSJub25lIiBkPSJNIDI0Njc1LDI2MjgyIEwgMjIxMzUsMjYyODIgMjIxMzUsMjI5ODAgMjcyMTUsMjI5ODAgMjcyMTUsMjYyODIgMjQ2NzUsMjYyODIgWiIvPiYjeGE7ICAgICAgICA8cGF0aCBmaWxsPSJub25lIiBzdHJva2U9InJnYig1MiwxMDEsMTY0KSIgZD0iTSAyNDY3NSwyNjI4MiBMIDIyMTM1LDI2MjgyIDIyMTM1LDIyOTgwIDI3MjE1LDIyOTgwIDI3MjE1LDI2MjgyIDI0Njc1LDI2MjgyIFoiLz4mI3hhOyAgICAgICAgPHRleHQgY2xhc3M9IlRleHRTaGFwZSI+PHRzcGFuIGNsYXNzPSJUZXh0UGFyYWdyYXBoIiBmb250LWZhbWlseT0iTGliZXJhdGlvbiBTYW5zLCBzYW5zLXNlcmlmIiBmb250LXNpemU9IjYzNXB4IiBmb250LXdlaWdodD0iNDAwIj48dHNwYW4gY2xhc3M9IlRleHRQb3NpdGlvbiIgeD0iMjQyNTIiIHk9IjI0MTQxIj48dHNwYW4gZmlsbD0icmdiKDAsMCwwKSIgc3Ryb2tlPSJub25lIj7QndCiPC90c3Bhbj48L3RzcGFuPjwvdHNwYW4+PHRzcGFuIGNsYXNzPSJUZXh0UGFyYWdyYXBoIiBmb250LWZhbWlseT0iTGliZXJhdGlvbiBTYW5zLCBzYW5zLXNlcmlmIiBmb250LXNpemU9IjYzNXB4IiBmb250LXdlaWdodD0iNDAwIj48dHNwYW4gY2xhc3M9IlRleHRQb3NpdGlvbiIgeD0iMjMyNjYiIHk9IjI0ODUyIj48dHNwYW4gZmlsbD0icmdiKDAsMCwwKSIgc3Ryb2tlPSJub25lIj5PcGVuU2hpZnQ8L3RzcGFuPjwvdHNwYW4+PC90c3Bhbj48dHNwYW4gY2xhc3M9IlRleHRQYXJhZ3JhcGgiIGZvbnQtZmFtaWx5PSJMaWJlcmF0aW9uIFNhbnMsIHNhbnMtc2VyaWYiIGZvbnQtc2l6ZT0iNjM1cHgiIGZvbnQtd2VpZ2h0PSI0MDAiPjx0c3BhbiBjbGFzcz0iVGV4dFBvc2l0aW9uIiB4PSIyMzg4NCIgeT0iMjU1NjMiPjx0c3BhbiBmaWxsPSJyZ2IoMCwwLDApIiBzdHJva2U9Im5vbmUiPmx0LWdlbjwvdHNwYW4+PC90c3Bhbj48L3RzcGFuPjwvdGV4dD4mI3hhOyAgICAgICA8L2c+JiN4YTsgICAgICA8L2c+JiN4YTsgICAgICA8ZyBjbGFzcz0iY29tLnN1bi5zdGFyLmRyYXdpbmcuQ3VzdG9tU2hhcGUiPiYjeGE7ICAgICAgIDxnIGlkPSJpZDE2Ij4mI3hhOyAgICAgICAgPHJlY3QgY2xhc3M9IkJvdW5kaW5nQm94IiBzdHJva2U9Im5vbmUiIGZpbGw9Im5vbmUiIHg9IjMxMzM0IiB5PSIxODc3OSIgd2lkdGg9IjUwODMiIGhlaWdodD0iMzMwNSIvPiYjeGE7ICAgICAgICA8cGF0aCBmaWxsPSJyZ2IoMjA1LDkyLDkyKSIgc3Ryb2tlPSJub25lIiBkPSJNIDMzODc1LDIyMDgyIEwgMzEzMzUsMjIwODIgMzEzMzUsMTg3ODAgMzY0MTUsMTg3ODAgMzY0MTUsMjIwODIgMzM4NzUsMjIwODIgWiIvPiYjeGE7ICAgICAgICA8cGF0aCBmaWxsPSJub25lIiBzdHJva2U9InJnYig1MiwxMDEsMTY0KSIgZD0iTSAzMzg3NSwyMjA4MiBMIDMxMzM1LDIyMDgyIDMxMzM1LDE4NzgwIDM2NDE1LDE4NzgwIDM2NDE1LDIyMDgyIDMzODc1LDIyMDgyIFoiLz4mI3hhOyAgICAgICAgPHRleHQgY2xhc3M9IlRleHRTaGFwZSI+PHRzcGFuIGNsYXNzPSJUZXh0UGFyYWdyYXBoIiBmb250LWZhbWlseT0iTGliZXJhdGlvbiBTYW5zLCBzYW5zLXNlcmlmIiBmb250LXNpemU9IjYzNXB4IiBmb250LXdlaWdodD0iNDAwIj48dHNwYW4gY2xhc3M9IlRleHRQb3NpdGlvbiIgeD0iMzI5MjkiIHk9IjE5OTQxIj48dHNwYW4gZmlsbD0icmdiKDAsMCwwKSIgc3Ryb2tlPSJub25lIj7Qn9Cg0J7QnDwvdHNwYW4+PC90c3Bhbj48L3RzcGFuPjx0c3BhbiBjbGFzcz0iVGV4dFBhcmFncmFwaCIgZm9udC1mYW1pbHk9IkxpYmVyYXRpb24gU2Fucywgc2Fucy1zZXJpZiIgZm9udC1zaXplPSI2MzVweCIgZm9udC13ZWlnaHQ9IjQwMCI+PHRzcGFuIGNsYXNzPSJUZXh0UG9zaXRpb24iIHg9IjMyNDY2IiB5PSIyMDY1MiI+PHRzcGFuIGZpbGw9InJnYigwLDAsMCkiIHN0cm9rZT0ibm9uZSI+T3BlblNoaWZ0PC90c3Bhbj48L3RzcGFuPjwvdHNwYW4+PHRzcGFuIGNsYXNzPSJUZXh0UGFyYWdyYXBoIiBmb250LWZhbWlseT0iTGliZXJhdGlvbiBTYW5zLCBzYW5zLXNlcmlmIiBmb250LXNpemU9IjYzNXB4IiBmb250LXdlaWdodD0iNDAwIj48dHNwYW4gY2xhc3M9IlRleHRQb3NpdGlvbiIgeD0iMzMzNDgiIHk9IjIxMzYzIj48dHNwYW4gZmlsbD0icmdiKDAsMCwwKSIgc3Ryb2tlPSJub25lIj4/Pz88L3RzcGFuPjwvdHNwYW4+PC90c3Bhbj48L3RleHQ+JiN4YTsgICAgICAgPC9nPiYjeGE7ICAgICAgPC9nPiYjeGE7ICAgICAgPGcgY2xhc3M9ImNvbS5zdW4uc3Rhci5kcmF3aW5nLkNvbm5lY3RvclNoYXBlIj4mI3hhOyAgICAgICA8ZyBpZD0iaWQxNyI+JiN4YTsgICAgICAgIDxyZWN0IGNsYXNzPSJCb3VuZGluZ0JveCIgc3Ryb2tlPSJub25lIiBmaWxsPSJub25lIiB4PSI0MDYzIiB5PSI3NjkzIiB3aWR0aD0iNTczOCIgaGVpZ2h0PSIzODkzIi8+JiN4YTsgICAgICAgIDxwYXRoIGZpbGw9Im5vbmUiIHN0cm9rZT0icmdiKDUyLDEwMSwxNjQpIiBkPSJNIDQxNzMsNzY5NCBMIDQxNzMsOTY0MCA0MTYzLDk2NDAgNDE2MywxMTA2OSIvPiYjeGE7ICAgICAgICA8cGF0aCBmaWxsPSJyZ2IoNTIsMTAxLDE2NCkiIHN0cm9rZT0ibm9uZSIgZD0iTSA0MDYzLDExMDU2IEwgNDI2MywxMTA1NiA0MTYzLDExNTg1IDQwNjMsMTEwNTYgWiIvPiYjeGE7ICAgICAgICA8dGV4dCBjbGFzcz0iVGV4dFNoYXBlIj48dHNwYW4gY2xhc3M9IlRleHRQYXJhZ3JhcGgiIGZvbnQtZmFtaWx5PSJMaWJlcmF0aW9uIFNhbnMsIHNhbnMtc2VyaWYiIGZvbnQtc2l6ZT0iNjM1cHgiIGZvbnQtd2VpZ2h0PSI0MDAiPjx0c3BhbiBjbGFzcz0iVGV4dFBvc2l0aW9uIiB4PSI0NTExIiB5PSI5NTA1Ij48dHNwYW4gZmlsbD0icmdiKDAsMCwwKSIgc3Ryb2tlPSJub25lIj5zcmMgKzwvdHNwYW4+PC90c3Bhbj48dHNwYW4gY2xhc3M9IlRleHRQb3NpdGlvbiIgeD0iNDUxMSIgeT0iMTAyMTYiPjx0c3BhbiBmaWxsPSJyZ2IoMCwwLDApIiBzdHJva2U9Im5vbmUiPkplbmtpbnNmaWxlIChncmFkbGUpPC90c3Bhbj48L3RzcGFuPjwvdHNwYW4+PC90ZXh0PiYjeGE7ICAgICAgIDwvZz4mI3hhOyAgICAgIDwvZz4mI3hhOyAgICAgIDxnIGNsYXNzPSJjb20uc3VuLnN0YXIuZHJhd2luZy5Db25uZWN0b3JTaGFwZSI+JiN4YTsgICAgICAgPGcgaWQ9ImlkMTgiPiYjeGE7ICAgICAgICA8cmVjdCBjbGFzcz0iQm91bmRpbmdCb3giIHN0cm9rZT0ibm9uZSIgZmlsbD0ibm9uZSIgeD0iNDA3MiIgeT0iMTU2NDgiIHdpZHRoPSIzNTQyIiBoZWlnaHQ9IjIyMTgiLz4mI3hhOyAgICAgICAgPHBhdGggZmlsbD0ibm9uZSIgc3Ryb2tlPSJyZ2IoNTIsMTAxLDE2NCkiIGQ9Ik0gNDE2MywxNTY0OSBMIDQxNjMsMTY3NTcgNDE3MiwxNjc1NyA0MTcyLDE3MzQ5Ii8+JiN4YTsgICAgICAgIDxwYXRoIGZpbGw9InJnYig1MiwxMDEsMTY0KSIgc3Ryb2tlPSJub25lIiBkPSJNIDQwNzIsMTczMzYgTCA0MjcyLDE3MzM2IDQxNzIsMTc4NjUgNDA3MiwxNzMzNiBaIi8+JiN4YTsgICAgICAgIDx0ZXh0IGNsYXNzPSJUZXh0U2hhcGUiPjx0c3BhbiBjbGFzcz0iVGV4dFBhcmFncmFwaCIgZm9udC1mYW1pbHk9IkxpYmVyYXRpb24gU2Fucywgc2Fucy1zZXJpZiIgZm9udC1zaXplPSI2MzVweCIgZm9udC13ZWlnaHQ9IjQwMCI+PHRzcGFuIGNsYXNzPSJUZXh0UG9zaXRpb24iIHg9IjQ3MDciIHk9IjE2NjIyIj48dHNwYW4gZmlsbD0icmdiKDAsMCwwKSIgc3Ryb2tlPSJub25lIj5Eb2NrZXI8L3RzcGFuPjwvdHNwYW4+PC90c3Bhbj48dHNwYW4gY2xhc3M9IlRleHRQYXJhZ3JhcGgiIGZvbnQtZmFtaWx5PSJMaWJlcmF0aW9uIFNhbnMsIHNhbnMtc2VyaWYiIGZvbnQtc2l6ZT0iNjM1cHgiIGZvbnQtd2VpZ2h0PSI0MDAiPjx0c3BhbiBjbGFzcz0iVGV4dFBvc2l0aW9uIiB4PSI0NzA3IiB5PSIxNzMzMyI+PHRzcGFuIGZpbGw9InJnYigwLDAsMCkiIHN0cm9rZT0ibm9uZSI+Y29udGFpbmVyczwvdHNwYW4+PC90c3Bhbj48L3RzcGFuPjwvdGV4dD4mI3hhOyAgICAgICA8L2c+JiN4YTsgICAgICA8L2c+JiN4YTsgICAgICA8ZyBjbGFzcz0iY29tLnN1bi5zdGFyLmRyYXdpbmcuQ29ubmVjdG9yU2hhcGUiPiYjeGE7ICAgICAgIDxnIGlkPSJpZDE5Ij4mI3hhOyAgICAgICAgPHJlY3QgY2xhc3M9IkJvdW5kaW5nQm94IiBzdHJva2U9Im5vbmUiIGZpbGw9Im5vbmUiIHg9IjYxOTQiIHk9Ijc3OTUiIHdpZHRoPSI0NzEzIiBoZWlnaHQ9IjU4MjQiLz4mI3hhOyAgICAgICAgPHBhdGggZmlsbD0ibm9uZSIgc3Ryb2tlPSJyZ2IoNTIsMTAxLDE2NCkiIGQ9Ik0gNjE5NSwxMzYxNyBMIDEwOTA1LDEzNjE3IDEwOTA1LDc3OTYiLz4mI3hhOyAgICAgICA8L2c+JiN4YTsgICAgICA8L2c+JiN4YTsgICAgICA8ZyBjbGFzcz0iY29tLnN1bi5zdGFyLmRyYXdpbmcuQ29ubmVjdG9yU2hhcGUiPiYjeGE7ICAgICAgIDxnIGlkPSJpZDIwIj4mI3hhOyAgICAgICAgPHJlY3QgY2xhc3M9IkJvdW5kaW5nQm94IiBzdHJva2U9Im5vbmUiIGZpbGw9Im5vbmUiIHg9IjQwMTciIHk9IjEyNjAiIHdpZHRoPSIxMjY1IiBoZWlnaHQ9IjE0NTciLz4mI3hhOyAgICAgICAgPHBhdGggZmlsbD0ibm9uZSIgc3Ryb2tlPSJyZ2IoNTIsMTAxLDE2NCkiIGQ9Ik0gNDE1NCwxMjYxIEwgNDE2NywyMjg2Ii8+JiN4YTsgICAgICAgIDxwYXRoIGZpbGw9InJnYig1MiwxMDEsMTY0KSIgc3Ryb2tlPSJub25lIiBkPSJNIDQxNzMsMjcxNiBMIDQzMTcsMjI2NCA0MDE3LDIyNjggNDE3MywyNzE2IFoiLz4mI3hhOyAgICAgICAgPHRleHQgY2xhc3M9IlRleHRTaGFwZSI+PHRzcGFuIGNsYXNzPSJUZXh0UGFyYWdyYXBoIiBmb250LWZhbWlseT0iTGliZXJhdGlvbiBTYW5zLCBzYW5zLXNlcmlmIiBmb250LXNpemU9IjYzNXB4IiBmb250LXdlaWdodD0iNDAwIj48dHNwYW4gY2xhc3M9IlRleHRQb3NpdGlvbiIgeD0iNDQ1MSIgeT0iMjIwOSI+PHRzcGFuIGZpbGw9InJnYigwLDAsMCkiIHN0cm9rZT0ibm9uZSI+c3JjPC90c3Bhbj48L3RzcGFuPjwvdHNwYW4+PC90ZXh0PiYjeGE7ICAgICAgIDwvZz4mI3hhOyAgICAgIDwvZz4mI3hhOyAgICAgPC9nPiYjeGE7ICAgIDwvZz4mI3hhOyAgIDwvZz4mI3hhOyAgPC9nPiYjeGE7IDwvZz4mI3hhOzwvc3ZnPg==;movable=1;resizable=1;rotatable=1;deletable=1;editable=1;connectable=1;" parent="1" vertex="1">
          <mxGeometry x="380" y="50" width="721.21" height="510" as="geometry" />
        </mxCell>
        <mxCell id="-XNHo_berZdc047SYOUG-2" value="&lt;div&gt;CI&lt;/div&gt;&lt;div&gt;BitBucket&lt;/div&gt;&lt;div&gt;sbtatlas&lt;br&gt;&lt;/div&gt;" style="whiteSpace=wrap;html=1;aspect=fixed;fillColor=#52A3FF;" parent="1" vertex="1">
          <mxGeometry x="40" y="40" width="80" height="80" as="geometry" />
        </mxCell>
        <mxCell id="-XNHo_berZdc047SYOUG-5" value="&lt;div&gt;CI&lt;br&gt;Jenkins&lt;br&gt;sbt-jenkins&lt;br&gt;&lt;/div&gt;" style="whiteSpace=wrap;html=1;aspect=fixed;fillColor=#fff2cc;strokeColor=#d6b656;" parent="1" vertex="1">
          <mxGeometry x="40" y="200" width="80" height="80" as="geometry" />
        </mxCell>
        <mxCell id="-XNHo_berZdc047SYOUG-6" value="CI&lt;br&gt;Nexus&lt;br&gt;nexus:8099" style="whiteSpace=wrap;html=1;aspect=fixed;fillColor=#eeeeee;strokeColor=#36393d;" parent="1" vertex="1">
          <mxGeometry x="40" y="360" width="80" height="80" as="geometry" />
        </mxCell>
        <mxCell id="-XNHo_berZdc047SYOUG-7" value="DEV&lt;br&gt;OpenShift&lt;br&gt;dev-gen" style="whiteSpace=wrap;html=1;aspect=fixed;strokeColor=#B20000;fillColor=#E56565;" parent="1" vertex="1">
          <mxGeometry x="40" y="520" width="80" height="80" as="geometry" />
        </mxCell>
      </root>
    </mxGraphModel>
  </diagram>
</mxfile>
